<svg xmlns="http://www.w3.org/2000/svg" xmlns:xlink="http://www.w3.org/1999/xlink" xml:space="preserve" version="1.1" style="shape-rendering:geometricPrecision;text-rendering:geometricPrecision;image-rendering:optimizeQuality;" viewBox="0 0 50800 63500" x="0px" y="0px" fill-rule="evenodd" clip-rule="evenodd"><defs><style type="text/css">
   
    .fil0 {fill:black}
   
  </style></defs><g><path class="fil0" d="M24208 26930c-404,-1526 247,-9464 116,-12199 -99,-2065 -450,-3541 -687,-5508 -426,-3527 716,-2265 750,-4990 -2541,0 -2992,245 -2155,5130 1516,8844 657,8913 493,17851 -3106,316 -6276,363 -9612,750 -1534,178 -3156,507 -4730,592 -1907,104 -3149,-387 -4486,501 205,969 286,1130 1557,1341 1262,209 13520,-1453 17337,-1419 -4,3405 570,6492 539,9916 -15,1591 -146,2895 -34,4633 57,876 -94,1526 -63,2141 165,3208 2910,2057 2148,-1277 -261,-1141 -367,-3496 -300,-4838 170,-3441 -906,-6940 -881,-10615 6825,-553 11674,-39 17769,-128 1055,-16 2245,108 3290,124 2783,42 2230,-631 2354,-821 -990,-1306 -4027,-633 -5624,-641 -2011,-10 -3811,-257 -5872,-324l-11909 -219z"/></g><text x="0" y="50815" fill="#000000" font-size="5px" font-weight="bold" font-family="'Helvetica Neue', Helvetica, Arial-Unicode, Arial, Sans-serif">Created by Alex Muravev</text><text x="0" y="50820" fill="#000000" font-size="5px" font-weight="bold" font-family="'Helvetica Neue', Helvetica, Arial-Unicode, Arial, Sans-serif">from the Noun Project</text></svg>