<svg xmlns="http://www.w3.org/2000/svg" xmlns:xlink="http://www.w3.org/1999/xlink" version="1.1" x="0px" y="0px" viewBox="0 0 32 40" enable-background="new 0 0 32 32" xml:space="preserve"><g display="none"><rect x="-153.365" y="-18.667" display="inline" fill="#000000" width="473.333" height="236"/></g><g display="none"><circle display="inline" cx="16" cy="16" r="16"/><g display="inline"><polygon fill="#000000" points="25,13.599 18.401,13.599 18.401,7 13.599,7 13.599,13.599 7,13.599 7,18.401 13.599,18.401     13.599,25 18.401,25 18.401,18.401 25,18.401   "/></g></g><g display="none"><g display="inline"><circle cx="16" cy="16" r="16"/></g><g display="inline"><g><polygon fill="#000000" points="25,13.599 18.401,13.599 18.401,7 13.599,7 13.599,13.599 7,13.599 7,18.401 13.599,18.401      13.599,25 18.401,25 18.401,18.401 25,18.401    "/></g></g></g><g display="none"><g display="inline"><path fill="#000000" d="M16,31.5C7.453,31.5,0.5,24.547,0.5,16S7.453,0.5,16,0.5S31.5,7.453,31.5,16S24.547,31.5,16,31.5z"/><path d="M16,1c8.271,0,15,6.729,15,15s-6.729,15-15,15S1,24.271,1,16S7.729,1,16,1 M16,0C7.163,0,0,7.163,0,16s7.163,16,16,16    s16-7.163,16-16S24.837,0,16,0L16,0z"/></g><g display="inline"><polygon fill="#000000" points="14.099,24.5 14.099,17.9 7.5,17.9 7.5,14.099 14.099,14.099 14.099,7.5 17.901,7.5 17.901,14.099     24.5,14.099 24.5,17.9 17.901,17.9 17.901,24.5   "/><g><path fill="#000000" d="M17.401,8v5.599v1h1H24v2.802h-5.599h-1v1V24h-2.802v-5.599v-1h-1H8v-2.802h5.599h1v-1V8H17.401      M18.401,7h-4.802v6.599H7v4.802h6.599V25h4.802v-6.599H25v-4.802h-6.599V7L18.401,7z"/></g></g></g><g display="none"><g display="inline"><path fill="#000000" d="M16,1c8.271,0,15,6.729,15,15s-6.729,15-15,15S1,24.271,1,16S7.729,1,16,1 M16,0C7.163,0,0,7.163,0,16    s7.163,16,16,16s16-7.163,16-16S24.837,0,16,0L16,0z"/></g><g display="inline"><g><path fill="#000000" d="M17.401,8v5.599v1h1H24v2.802h-5.599h-1v1V24h-2.802v-5.599v-1h-1H8v-2.802h5.599h1v-1V8H17.401      M18.401,7h-4.802v6.599H7v4.802h6.599V25h4.802v-6.599H25v-4.802h-6.599V7L18.401,7z"/></g></g></g><g display="none"><g display="inline"><path fill="#000000" d="M16,0.5c8.547,0,15.5,6.953,15.5,15.5S24.547,31.5,16,31.5S0.5,24.547,0.5,16S7.453,0.5,16,0.5 M16,0    C7.163,0,0,7.163,0,16s7.163,16,16,16s16-7.163,16-16S24.837,0,16,0L16,0z"/></g><g display="inline"><path fill="#000000" d="M17.901,7.5v6.099v0.5h0.5H24.5v3.802h-6.099h-0.5v0.5V24.5h-3.802v-6.099v-0.5h-0.5H7.5v-3.802h6.099h0.5    v-0.5V7.5H17.901 M18.401,7h-4.802v6.599H7v4.802h6.599V25h4.802v-6.599H25v-4.802h-6.599V7L18.401,7z"/></g></g><g><path d="M20.725,30.417c-1.451,0.444-2.954,0.706-4.465,0.781C17.817,31.192,19.317,30.918,20.725,30.417z"/><path d="M0,16.154c0,10.538,8.173,15.445,16.261,15.043c-1.939,0.007-3.964-0.397-6.005-1.308   c-5.444-2.429-9.159-8.064-9.096-14.046C1.257,6.458,9.851-1.11,19.414,1.288c6.893,1.729,11.136,8.015,11.427,14.866   c-0.28,6.57-4.45,12.247-10.115,14.263C26.67,28.595,31.665,23.703,32,15.843C31.133-4.53,0-4.089,0,16.154z"/><path d="M24.927,13.409c-0.006,0-0.008-0.002-0.014-0.002c-1.091,0-5.83,0.432-6.143,0.015c-0.515-0.686,0.124-4.984,0.124-6.252   c0-0.125-0.275-0.122-0.34-0.122c-1.543,0-3.085,0-4.628,0c-0.229,0-0.819,0.123-0.819,0.433c0,1.976,0,3.951,0,5.927   c-1.847,0-3.694,0-5.541,0c-0.229,0-0.819,0.123-0.819,0.433c0,1.543,0,3.085,0,4.628c0,0.125,0.275,0.122,0.34,0.122   c1.091,0,5.83-0.432,6.143-0.015c0.515,0.686-0.124,4.984-0.124,6.252c0,0.125,0.275,0.122,0.34,0.122c1.543,0,3.085,0,4.628,0   c0.229,0,0.819-0.123,0.819-0.433c0-1.976,0-3.951,0-5.927c1.847,0,3.694,0,5.541,0c0.229,0,0.819-0.123,0.819-0.433   c0-1.543,0-3.085,0-4.628C25.253,13.437,25.11,13.402,24.927,13.409z M14.33,24.395c0.002-0.046-0.011-0.112-0.064-0.23   c-0.633-1.415,0-4.407,0-6.008c0-0.125-0.275-0.122-0.34-0.122c-1.424,0-4.848,0.692-6.008,0c-0.068-0.041-0.012-1.061-0.012-1.877   c0-0.732,0-1.464,0-2.196c1.847,0,3.694,0,5.541,0c0.229,0,0.819-0.123,0.819-0.433c0-1.976,0-3.951,0-5.927   c0.603,0,1.207,0,1.81,0c0.216,0,1.38-0.129,1.595,0c-0.002,0.046,0.011,0.112,0.064,0.23c0.633,1.415,0,4.407,0,6.008   c0,0.125,0.275,0.122,0.34,0.122c2.007,0,4.013,0,6.02,0c0,1.357,0,2.715,0,4.072c-1.847,0-3.694,0-5.541,0   c-0.229,0-0.819,0.123-0.819,0.433c0,1.976,0,3.951,0,5.927c-0.603,0-1.207,0-1.81,0C15.708,24.395,14.545,24.524,14.33,24.395z"/></g><g display="none"><g display="inline"><path fill="#000000" d="M16,2c7.72,0,14,6.28,14,14s-6.28,14-14,14S2,23.72,2,16S8.28,2,16,2 M16,0C7.163,0,0,7.163,0,16    s7.163,16,16,16s16-7.163,16-16S24.837,0,16,0L16,0z"/></g><polygon display="inline" fill="#000000" stroke="#0F8EDB" stroke-width="2" stroke-miterlimit="10" points="18.401,13.599 18.401,7    13.599,7 13.599,13.599 7,13.599 7,18.401 13.599,18.401 13.599,25 18.401,25 18.401,18.401 25,18.401 25,13.599  "/></g><g display="none"><g display="inline"><path fill="#000000" d="M16,31.5C7.453,31.5,0.5,24.547,0.5,16S7.453,0.5,16,0.5S31.5,7.453,31.5,16S24.547,31.5,16,31.5z"/><g><path d="M16,1c8.271,0,15,6.729,15,15s-6.729,15-15,15S1,24.271,1,16S7.729,1,16,1 M16,0C7.163,0,0,7.163,0,16s7.163,16,16,16     s16-7.163,16-16S24.837,0,16,0L16,0z"/></g></g><g display="inline"><polygon fill="#000000" points="14.099,24.5 14.099,17.9 7.5,17.9 7.5,14.099 14.099,14.099 14.099,7.5 17.901,7.5 17.901,14.099     24.5,14.099 24.5,17.9 17.901,17.9 17.901,24.5   "/><g><path fill="#000000" d="M17.401,8v5.599v1h1H24v2.802h-5.599h-1v1V24h-2.802v-5.599v-1h-1H8v-2.802h5.599h1v-1V8H17.401      M18.401,7h-4.802v6.599H7v4.802h6.599V25h4.802v-6.599H25v-4.802h-6.599V7L18.401,7z"/></g></g></g><g display="none"><path display="inline" d="M16,0C7.163,0,0,7.163,0,16s7.163,16,16,16s16-7.163,16-16S24.837,0,16,0z M25,18.401h-6.599V25h-4.802   v-6.599H7v-4.802h6.599V7h4.802v6.599H25V18.401z"/></g><text x="0" y="47" fill="#000000" font-size="5px" font-weight="bold" font-family="'Helvetica Neue', Helvetica, Arial-Unicode, Arial, Sans-serif">Created by Alfredo @ IconsAlfredo.us</text><text x="0" y="52" fill="#000000" font-size="5px" font-weight="bold" font-family="'Helvetica Neue', Helvetica, Arial-Unicode, Arial, Sans-serif">from the Noun Project</text></svg>