<svg xmlns:x="http://ns.adobe.com/Extensibility/1.0/" xmlns:i="http://ns.adobe.com/AdobeIllustrator/10.0/" xmlns:graph="http://ns.adobe.com/Graphs/1.0/" xmlns="http://www.w3.org/2000/svg" xmlns:xlink="http://www.w3.org/1999/xlink" version="1.1" x="0px" y="0px" viewBox="0 0 100 125" enable-background="new 0 0 100 100" xml:space="preserve"><metadata><sfw xmlns="http://ns.adobe.com/SaveForWeb/1.0/"><slices/><sliceSourceBounds width="1549.7" height="1444.2" x="-103.4" y="-1447" bottomLeftOrigin="true"/></sfw></metadata><path d="M86.3,18c-4.5-0.3-9.1-0.5-13.6-0.5c-1.6,0-3.3,0-4.9,0.1c0.4-0.5,0.7-1.2,0.8-2c0.1-1.5,0.3-3,0.4-4.4  c0.1-2.3-1.1-4.7-3.2-5.9c-0.4-0.2-0.8-0.4-1.3-0.6c-0.2-0.1-0.5-0.1-0.7-0.2c-0.2-0.1-0.5-0.1-0.8-0.1c-0.2,0-0.3,0-0.5,0l-0.2,0  l-0.1,0l-0.1,0l-0.2,0l-0.9,0l-3.6,0.1l-7.2,0.3C48.2,4.4,46,4.1,43.9,4c-1.1-0.1-2.2-0.1-3.2-0.2l-1.6,0l-0.8,0c-0.3,0-0.5,0-1,0  c-1.8,0.1-3.6,1-4.9,2.4c-0.6,0.7-1.1,1.5-1.4,2.4c-0.1,0.2-0.2,0.4-0.2,0.7c-0.1,0.2-0.1,0.4-0.2,0.7l-0.1,0.4l0,0.2l0,0.1l0,0.2  l0,0.4c0,1.9,0,3.9-0.1,5.8c-6.4,0-12.8,0.1-19.1,0c-0.6,0-1.5,0.5-1.8,0.9c-0.6,0.7,0.2,1.4,1.3,1.8c2.3,1,4.9,1.6,7.7,2  c-0.8,1.6-1.4,5.2-1.5,9.9c-0.3,11-0.5,22-0.5,33l0.1,13.3l0,3.3l0,0.8l0,0.4l0,0.5c0,0.7,0.1,1.3,0.2,2c0.3,1.3,0.7,2.6,1.4,3.8  c0.7,1.2,1.5,2.2,2.4,3.2c1.9,1.8,4.4,3.1,7,3.6l1.1,0.1l0.8,0l0.2,0l0.3,0l0.4,0l0.8,0l3.3,0l13.3-0.2c4,0.2,7.9,0.4,11.9,0.5  c2,0.1,4,0.1,6,0.2l3,0.1l0.8,0c0.3,0,0.5,0,0.8,0c0.6,0,1.2,0,1.9-0.1c2.5-0.3,4.9-1.4,6.8-3c1-0.8,1.8-1.8,2.6-2.8  c0.7-1.1,1.3-2.2,1.7-3.4c0.1-0.3,0.2-0.6,0.3-0.9c0.1-0.3,0.2-0.6,0.2-0.9l0.2-1l0-0.3l0-0.2l0-0.4l0-0.4l0-0.2l0-0.3l0-0.8l0-1.5  l0-6c0-16.1-0.1-32.2,0-48.3c0-0.8-0.2-2-0.4-2.9c0.9-0.1,1.8-0.1,2.7-0.2c2.4-0.2,4.5-0.9,4.3-2.2C90.6,19.1,88.9,18.1,86.3,18z   M35.2,11.9l0.1-0.6l0-0.1l0-0.1l0,0l0,0v0c0,0.2,0,0.1,0,0.1l0,0l0,0l0-0.3l0-0.1c0,0,0,0,0,0c0,0,0,0,0-0.1c0-0.1,0.1-0.2,0.1-0.3  c0.2-0.4,0.5-0.7,0.9-0.9c0.2-0.1,0.4-0.2,0.6-0.2c0.1,0,0.2,0,0.3,0c0,0,0.1,0,0.1,0l0.2,0c1.8,0.1,3.6,0.2,5.4,0.3  c3.6,0.2,7.2,0.2,10.8,0c0.9,0.1,1.8,0.1,2.7,0.2c1.4,0.1,2.8,0.1,4.2,0.1l1.1,0l0.3,0l0,0l0,0l0.1,0l0.3,0l0.1,0l0,0l0,0  c0,0,0,0,0,0c0,0,0,0,0.1,0c0.1,0,0.1,0,0.1,0c0.1,0,0.2,0.1,0.3,0.2c0.2,0.1,0.3,0.3,0.4,0.5c0.1,0.1,0.1,0.2,0.1,0.3  c0,0.1,0,0.1,0,0.2c0,0,0,0,0,0.1l0,0.3c0.1,1.4,0.2,2.8,0.3,4.2c0.1,0.8,0.3,1.5,0.7,2c-4.6,0.1-9.2,0.3-13.8,0.4  c-5.7-0.8-11.5-1-17.2-1.1c0.5-0.9,0.9-1.9,1.2-3C35,13.3,35.1,12.6,35.2,11.9z M81.4,24.4c-1.6,9-2.2,19.8-2.4,30.9  c-0.1,6.7-0.2,13.3-0.3,20l-0.1,5l0,1.2l0,0.6l0,0.1v0l0,0.1l0,0.3l0,0.6c0,0.2-0.1,0.3-0.1,0.4l-0.1,0.4l-0.1,0.5  c-0.7,2.5-2.6,4.5-4.9,5.5c-0.3,0.1-0.6,0.2-0.9,0.3c-0.3,0.1-0.6,0.2-0.9,0.2c-0.3,0-0.6,0.1-0.9,0.1l-0.5,0c-0.2,0-0.4,0-0.6,0  l-5,0c-3.3,0-6.7,0-10,0c-6.7,0-13.4,0.1-20.1,0.2l-2.5,0l-1.2,0l-0.6,0l-0.1,0l-0.2,0l-0.3,0l-0.6,0l-0.4-0.1  c-0.2,0-0.5-0.1-0.8-0.2c-0.6-0.2-1.2-0.4-1.7-0.7c-1.7-1-3-2.5-3.7-4.4c-0.3-0.9-0.5-1.9-0.5-2.8l0-3.9c0-5.3,0-10.5,0-15.8  c0-10.5-0.2-21-0.5-31.5c-0.1-4.1-0.5-7.7-1.1-9.4c1,0.1,2.1,0.2,3.1,0.2c11,0.4,21.9,1.1,33,0.6c1.4,0.1,2.7,0.1,4.1,0.2  c7.1,0.2,14.2,0.3,21.2,0C81.6,23.3,81.5,23.8,81.4,24.4z M53.1,35.3c-0.4,7.3,0.6,14.7-1.1,21.9c0.2,4,0.5,8,0.6,12.1  c0,2.5-0.3,5-0.5,7.5c-0.1,1.4-1.1,2.3-2.3,2.4c-1.4,0.1-2.1-1-2.2-2.4c-0.6-4.8-0.5-9.5-0.3-14.3c0-0.8,0.1-1.5,0.2-2.3  c-0.5-6.1,0.2-12.1,0.6-18.2c0.2-2.5,0.9-5,2.4-7c0.5-0.6,1.1-1,1.8-0.7C52.5,34.5,53.1,35,53.1,35.3z M69.7,35.3  c-0.4,7.3,0.6,14.7-1.1,21.9c0.2,4,0.5,8,0.6,12.1c0,2.5-0.3,5-0.5,7.5c-0.1,1.4-1.1,2.3-2.3,2.4c-1.4,0.1-2.1-1-2.2-2.4  c-0.6-4.8-0.5-9.5-0.3-14.3c0-0.8,0.1-1.5,0.2-2.3c-0.5-6.1,0.2-12.1,0.6-18.2c0.2-2.5,0.9-5,2.4-7c0.5-0.6,1.1-1,1.8-0.7  C69.2,34.5,69.7,35,69.7,35.3z M36.4,35.3c-0.4,7.3,0.6,14.7-1.1,21.9c0.2,4,0.5,8,0.6,12.1c0,2.5-0.3,5-0.5,7.5  c-0.1,1.4-1.1,2.3-2.3,2.4c-1.4,0.1-2.1-1-2.2-2.4c-0.6-4.8-0.5-9.5-0.3-14.3c0-0.8,0.1-1.5,0.2-2.3c-0.5-6.1,0.2-12.1,0.6-18.2  c0.2-2.5,0.9-5,2.4-7c0.5-0.6,1.1-1,1.8-0.7C35.9,34.5,36.4,35,36.4,35.3z"/><text x="0" y="115" fill="#000000" font-size="5px" font-weight="bold" font-family="'Helvetica Neue', Helvetica, Arial-Unicode, Arial, Sans-serif">Created by Gregor Cresnar</text><text x="0" y="120" fill="#000000" font-size="5px" font-weight="bold" font-family="'Helvetica Neue', Helvetica, Arial-Unicode, Arial, Sans-serif">from the Noun Project</text></svg>