<svg xmlns="http://www.w3.org/2000/svg" xmlns:xlink="http://www.w3.org/1999/xlink" version="1.1" x="0px" y="0px" viewBox="0 0 32 40" enable-background="new 0 0 32 32" xml:space="preserve"><g display="none"><rect x="-415.344" y="-186.651" display="inline" fill="#000000" width="473.333" height="236"/></g><g display="none"><g display="inline"><polygon fill="#000000" points="21.171,7.066 16,12.237 10.829,7.066 7.066,10.829 12.237,16 7.066,21.171 10.829,24.934     16,19.763 21.171,24.934 24.934,21.171 19.763,16 24.934,10.829   "/><path d="M30,2v28H2V2H30 M32,0H0v32h32V0L32,0z"/></g></g><g display="none"><g display="inline"><g><path fill="#000000" d="M16,31.75C7.316,31.75,0.25,24.685,0.25,16S7.316,0.25,16,0.25S31.75,7.315,31.75,16     S24.685,31.75,16,31.75z"/><path fill="#000000" d="M16,0.5c8.547,0,15.5,6.953,15.5,15.5S24.547,31.5,16,31.5S0.5,24.547,0.5,16S7.453,0.5,16,0.5 M16,0     C7.163,0,0,7.163,0,16c0,8.837,7.163,16,16,16s16-7.163,16-16C32,7.163,24.837,0,16,0L16,0z"/></g></g><g display="inline"><g><polygon fill="#000000" points="18.909,10.975 16,13.883 13.091,10.975 10.975,13.091 13.883,16 10.975,18.909 13.091,21.025      16,18.117 18.909,21.025 21.025,18.909 18.117,16 21.025,13.091    "/></g><g><path d="M23.875,8.125v15.75H8.125V8.125H23.875 M25,7H7v18h18V7L25,7z"/></g></g></g><g display="none"><g display="inline"><rect x="0.5" y="0.5" fill="#000000" width="31" height="31"/><path d="M31,1v30H1V1H31 M32,0H0v32h32V0L32,0z"/></g><g display="inline"><polygon points="21.171,7.066 16,12.237 10.829,7.066 7.066,10.829 12.237,16 7.066,21.171 10.829,24.934 16,19.763     21.171,24.934 24.934,21.171 19.763,16 24.934,10.829   "/></g></g><g display="none"><g display="inline"><g><path fill="#000000" d="M21.171,8.48l2.348,2.348l-4.464,4.464L18.348,16l0.707,0.707l4.464,4.464l-2.349,2.348l-4.464-4.464     L16,18.348l-0.707,0.707l-4.464,4.464L8.48,21.171l4.464-4.464L13.652,16l-0.707-0.707L8.48,10.829l2.348-2.348l4.464,4.464     L16,13.651l0.707-0.707L21.171,8.48 M21.171,7.066L16,12.237l-5.171-5.171l-3.763,3.763L12.237,16l-5.171,5.171l3.763,3.763     L16,19.763l5.171,5.171l3.763-3.763L19.763,16l5.171-5.171L21.171,7.066L21.171,7.066z"/></g><g><path fill="#000000" d="M31,1v30H1V1H31 M32,0H0v32h32V0L32,0z"/></g></g></g><g display="none"><g display="inline"><path fill="#000000" d="M21.171,7.773l3.056,3.056l-4.818,4.818L19.056,16l0.354,0.354l4.818,4.818l-3.056,3.056l-4.818-4.818    L16,19.056l-0.354,0.354l-4.818,4.818l-3.056-3.056l4.818-4.818L12.944,16l-0.354-0.354l-4.818-4.818l3.056-3.056l4.818,4.818    L16,12.944l0.354-0.354L21.171,7.773 M21.171,7.066L16,12.237l-5.171-5.171l-3.763,3.763L12.237,16l-5.171,5.171l3.763,3.763    L16,19.763l5.171,5.171l3.763-3.763L19.763,16l5.171-5.171L21.171,7.066L21.171,7.066z"/></g><g display="inline"><path fill="#000000" d="M31.5,0.5v31h-31v-31H31.5 M32,0H0v32h32V0L32,0z"/></g></g><g><path d="M25.097,11.195c0.099-0.099,0.156-0.323,0.043-0.436c-1.209-1.208-2.418-2.416-3.626-3.624   c-0.187-0.187-0.55-0.163-0.818-0.041c-0.062,0.025-0.116,0.058-0.164,0.098C20.523,7.2,20.513,7.204,20.506,7.21   c-0.003,0.002-0.006,0.003-0.009,0.006c-1.479,1.477-2.957,2.955-4.435,4.432c-1.505-1.504-3.01-3.008-4.516-4.512   c-0.292-0.292-0.746-0.191-1.017,0.08C9.321,8.424,8.112,9.632,6.903,10.84c-0.099,0.099-0.156,0.323-0.043,0.436   c0.878,0.877,4.936,4.187,4.949,4.762c0.012,0.534-4.03,3.886-4.906,4.762c-0.099,0.099-0.156,0.323-0.043,0.436   c1.209,1.208,2.418,2.416,3.626,3.624c0.292,0.292,0.746,0.191,1.017-0.08c1.478-1.477,2.957-2.955,4.435-4.432   c1.505,1.504,3.01,3.008,4.516,4.512c0.292,0.292,0.746,0.191,1.017-0.08c1.209-1.208,2.418-2.416,3.626-3.624   c0.099-0.099,0.156-0.323,0.043-0.436c-0.878-0.877-4.936-4.187-4.949-4.762C20.178,15.424,24.22,12.071,25.097,11.195z    M19.097,16.256c1.305,1.304,3.883,3.003,4.647,4.643c0.04,0.086,0.074,0.14,0.105,0.18c-0.137,0.36-0.839,0.835-1.089,1.085   c-0.571,0.571-1.143,1.142-1.714,1.713c-1.505-1.504-3.01-3.008-4.516-4.512c-0.292-0.292-0.746-0.191-1.017,0.08   c-1.479,1.477-2.957,2.955-4.435,4.432c-0.598-0.598-1.196-1.195-1.794-1.793c-0.211-0.211-0.973-0.794-1.095-1.095   c-0.012-0.029-0.02-0.036-0.031-0.058c0.019-0.035,0.035-0.058,0.056-0.112c0.656-1.617,3.386-3.384,4.647-4.643   c0.099-0.099,0.156-0.323,0.043-0.436c-1.305-1.304-3.883-3.003-4.647-4.643c-0.04-0.086-0.074-0.14-0.105-0.18   c0.137-0.36,0.839-0.835,1.089-1.085c0.571-0.571,1.143-1.142,1.714-1.713c1.505,1.504,3.01,3.008,4.516,4.512   c0.292,0.292,0.746,0.191,1.017-0.08c1.478-1.477,2.957-2.955,4.435-4.432c0.598,0.598,1.196,1.195,1.794,1.793   c0.211,0.211,0.973,0.794,1.095,1.095c0.012,0.029,0.02,0.036,0.031,0.058c-0.019,0.035-0.035,0.058-0.057,0.112   c-0.655,1.617-3.386,3.384-4.647,4.643C19.041,15.919,18.984,16.143,19.097,16.256z"/><path d="M31.651,0.277c-10.28,0-20.561,0-30.841,0C0.545,0.277,0,0.401,0,0.744C0,11.017,0,21.29,0,31.562   c0,0.135,0.27,0.156,0.349,0.156c10.269,0,20.538,0,30.807,0C31.5,31.718,32,31.535,32,31.252c0-10.273,0-20.545,0-30.818   C32,0.299,31.73,0.277,31.651,0.277z M0.972,31.096c0.328,0.264,0.187-1.589,0.187-2.219c0-5.161,0-10.323,0-15.484   c0-4.154-0.263-8.403-0.002-12.55C1.53,0.844,1.954,0.887,2.198,0.9c2.132,0.113,4.306,0,6.44,0c5.593,0,11.186,0,16.779,0   c1.326,0,3.917-0.529,5.141,0c0.659,0.285,0.212-0.283,0.283,1.222c0.451,9.613,0.016,19.344,0.002,28.973   c-8.585,0-17.171,0-25.756,0C4.437,31.096,1.509,31.527,0.972,31.096z"/></g><g display="none"><polygon display="inline" fill="#000000" stroke="#0F8EDB" stroke-width="2" stroke-miterlimit="10" points="21.171,7.066 16,12.237    10.829,7.066 7.066,10.829 12.237,16 7.066,21.171 10.829,24.934 16,19.763 21.171,24.934 24.934,21.171 19.763,16 24.934,10.829     "/><g display="inline"><path fill="#000000" d="M30,2v28H2V2H30 M32,0H0v32h32V0L32,0z"/></g></g><g display="none"><g display="inline"><rect x="0.5" y="0.5" fill="#000000" width="31" height="31"/><g><path d="M31,1v30H1V1H31 M32,0H0v32h32V0L32,0z"/></g></g><g display="inline"><polygon fill="#000000" points="7.773,21.171 12.945,16 7.773,10.829 10.828,7.773 16,12.944 21.171,7.773 24.227,10.829     19.056,16 24.227,21.171 21.171,24.227 16,19.056 10.828,24.227   "/><g><path fill="#000000" d="M21.171,8.48l2.348,2.348l-4.464,4.464L18.348,16l0.707,0.707l4.464,4.464l-2.349,2.348l-4.464-4.464     L16,18.348l-0.707,0.707l-4.464,4.464L8.48,21.171l4.464-4.464L13.652,16l-0.707-0.707L8.48,10.829l2.348-2.348l4.464,4.464     L16,13.651l0.707-0.707L21.171,8.48 M21.171,7.066L16,12.237l-5.171-5.171l-3.763,3.763L12.237,16l-5.171,5.171l3.763,3.763     L16,19.763l5.171,5.171l3.763-3.763L19.763,16l5.171-5.171L21.171,7.066L21.171,7.066z"/></g></g></g><g display="none"><path display="inline" d="M0,0v32h32V0H0z M24.934,21.171l-3.763,3.763L16,19.763l-5.171,5.171l-3.763-3.763L12.237,16   l-5.171-5.171l3.763-3.763L16,12.237l5.171-5.171l3.763,3.763L19.763,16L24.934,21.171z"/></g><text x="0" y="47" fill="#000000" font-size="5px" font-weight="bold" font-family="'Helvetica Neue', Helvetica, Arial-Unicode, Arial, Sans-serif">Created by Alfredo @ IconsAlfredo.us</text><text x="0" y="52" fill="#000000" font-size="5px" font-weight="bold" font-family="'Helvetica Neue', Helvetica, Arial-Unicode, Arial, Sans-serif">from the Noun Project</text></svg>