<svg xmlns="http://www.w3.org/2000/svg" xmlns:xlink="http://www.w3.org/1999/xlink" xml:space="preserve" version="1.1" style="shape-rendering:geometricPrecision;text-rendering:geometricPrecision;image-rendering:optimizeQuality;" viewBox="0 0 50800 63500" x="0px" y="0px" fill-rule="evenodd" clip-rule="evenodd"><defs><style type="text/css">
   
    .fil0 {fill:black}
   
  </style></defs><g><path class="fil0" d="M43614 9472c-3232,2878 -14301,13240 -16271,14360 -1150,-609 -1010,-617 -1809,-1300l-4727 -3864c-3384,-2475 -4156,-3622 -6259,-5362 -1258,-1041 -1852,-1873 -3020,-3007 -2374,-2304 -3779,-7005 -6092,-4604 -1048,1089 559,1232 831,3901 2281,274 2004,233 3117,1560 3175,3789 9729,8655 13756,12044 1222,1028 1499,968 2064,2424l-8545 7219c-1762,1560 -13163,10920 -13692,12393 1740,2063 3035,-802 5854,-3460 1774,-1673 3885,-3154 5816,-4934l11846 -10071 5388 5759c2575,2724 10793,12751 13756,13308 1511,285 2680,-80 3055,-1462 -1578,-779 -2110,-150 -3538,-1441 -750,-677 -1264,-1467 -2350,-2388 -1071,-908 -1765,-1151 -2782,-2400l-11135 -12518 9104 -8899c1767,-1627 2787,-2875 4630,-4404 1672,-1387 5177,-2703 3699,-4207 -1509,-653 -1711,476 -2696,1353z"/></g><text x="0" y="50815" fill="#000000" font-size="5px" font-weight="bold" font-family="'Helvetica Neue', Helvetica, Arial-Unicode, Arial, Sans-serif">Created by Alex Muravev</text><text x="0" y="50820" fill="#000000" font-size="5px" font-weight="bold" font-family="'Helvetica Neue', Helvetica, Arial-Unicode, Arial, Sans-serif">from the Noun Project</text></svg>