<svg xmlns="http://www.w3.org/2000/svg" xmlns:xlink="http://www.w3.org/1999/xlink" version="1.1" x="0px" y="0px" viewBox="0 0 100 125" enable-background="new 0 0 100 100" xml:space="preserve"><path fill-rule="evenodd" clip-rule="evenodd" d="M84.664,81.303c-6.453-9.168-13.467-17.997-21.144-26.254  c2.12-1.716,4.271-3.413,6.459-5.087c8.407,7.538,16.422,15.213,24.355,22.689c-6.276-8.917-13.082-17.513-20.513-25.575  c6.373-4.699,13.057-9.19,20.154-13.364l-1.272-6.362c-8.324,4.404-16.092,9.451-23.365,15.009  c-1.476-1.506-2.976-2.992-4.501-4.454c6.472-4.789,13.265-9.363,20.485-13.61l-1.272-6.362  c-8.574,4.537-16.557,9.755-24.018,15.512c-1.591-1.426-3.207-2.829-4.851-4.204c6.468-4.785,13.256-9.355,20.47-13.599L74.38,9.28  C65.667,13.89,57.565,19.203,50,25.071C42.435,19.203,34.333,13.89,25.62,9.28l-1.272,6.362c7.215,4.243,14.003,8.814,20.47,13.599  c-1.644,1.375-3.259,2.778-4.851,4.204c-7.461-5.758-15.444-10.976-24.018-15.512l-1.272,6.362  c7.22,4.247,14.013,8.821,20.485,13.61c-1.525,1.462-3.025,2.947-4.501,4.454C23.388,36.8,15.621,31.754,7.296,27.35l-1.273,6.362  c7.097,4.174,13.781,8.664,20.154,13.364C18.747,55.138,11.941,63.733,5.665,72.65c7.933-7.476,15.949-15.151,24.355-22.689  c2.188,1.674,4.339,3.372,6.459,5.087c-7.677,8.258-14.691,17.086-21.144,26.254c8.102-7.635,16.292-15.479,24.895-23.171  c2.035,1.696,4.042,3.407,6.024,5.13c-8.119,8.6-15.5,17.843-22.267,27.457C32.441,82.755,40.987,74.562,50,66.552  c9.013,8.01,17.559,16.203,26.011,24.168c-6.767-9.614-14.148-18.857-22.267-27.457c1.982-1.723,3.99-3.434,6.024-5.13  C68.372,65.825,76.562,73.668,84.664,81.303z M65.13,45.673c-1.985,1.613-3.929,3.267-5.839,4.955  c-1.568-1.592-3.161-3.163-4.784-4.705c1.866-1.515,3.758-3.014,5.676-4.496C61.85,42.833,63.498,44.249,65.13,45.673z M50,33.171  c1.757,1.365,3.493,2.742,5.206,4.133c-1.764,1.461-3.502,2.949-5.206,4.469c-1.704-1.52-3.442-3.008-5.206-4.469  C46.507,35.913,48.243,34.535,50,33.171z M34.87,45.673c1.632-1.424,3.28-2.84,4.947-4.246c1.918,1.483,3.811,2.982,5.676,4.496  c-1.623,1.542-3.216,3.113-4.784,4.705C38.799,48.94,36.855,47.286,34.87,45.673z M50,59.394c-1.745-1.756-3.527-3.479-5.339-5.173  c1.76-1.534,3.538-3.061,5.339-4.575c1.801,1.514,3.579,3.041,5.339,4.575C53.527,55.915,51.745,57.638,50,59.394z"/></svg>