<svg xmlns="http://www.w3.org/2000/svg" xmlns:xlink="http://www.w3.org/1999/xlink" xml:space="preserve" version="1.1" style="shape-rendering:geometricPrecision;text-rendering:geometricPrecision;image-rendering:optimizeQuality;" viewBox="0 0 50800 63500" x="0px" y="0px" fill-rule="evenodd" clip-rule="evenodd"><defs><style type="text/css">
   
    .fil0 {fill:black}
   
  </style></defs><g><path class="fil0" d="M11295 42612c749,-737 294,-683 789,-1455 1030,-1606 1774,-2222 3184,-3468 1612,-1424 851,-1565 3346,-3514 1176,-918 2807,-2957 3295,-3342 1816,-1434 5203,-5752 6415,-6858 1376,-1254 3082,-2557 4828,-4102l7255 -6262c922,-578 393,29 992,-794l2317 -2054c1234,-887 3371,-2171 3697,-2885 -884,-405 -885,-332 -1553,210l-10634 9062c-6187,5377 -7339,6454 -13508,12576 -739,733 -1472,1187 -2256,2092l-4240 4456c-773,771 -1385,1385 -2202,2142 -1613,1495 -1240,1821 -2241,2155 -1741,-3622 -2419,-10661 -3184,-14385 -299,-1452 -587,-3758 -2148,-2890 -135,1081 442,1045 880,2128 474,1169 1093,6570 1395,8238 289,1592 899,3417 1295,5081 925,3892 595,4111 2278,3869z"/></g></svg>