<svg xmlns="http://www.w3.org/2000/svg" xmlns:xlink="http://www.w3.org/1999/xlink" xml:space="preserve" version="1.1" style="shape-rendering:geometricPrecision;text-rendering:geometricPrecision;image-rendering:optimizeQuality;" viewBox="0 0 50800 63500" x="0px" y="0px" fill-rule="evenodd" clip-rule="evenodd"><defs><style type="text/css">
   
    .fil0 {fill:black}
   
  </style></defs><g><path class="fil0" d="M23236 42315c-871,-487 -1260,-1699 -1872,-2447l-3021 -3764c-1669,-2089 -758,-1200 -3166,-3659 -1497,-1528 0,-455 -2233,-2229 -1807,-1434 -1837,-2282 -3230,-3618 -423,-405 -878,-574 -1331,-1025l-1202 -1115c-406,-354 -982,-635 -1179,-1073 504,-506 1673,-371 3613,-1760 658,-471 922,-740 1471,-1375 601,-695 911,-846 1291,-1891 326,243 211,131 353,353l662 1365c344,596 738,1093 1092,1684 188,312 299,572 506,874l1652 2512c290,390 399,400 614,675 1573,2013 3818,3781 6629,3668 569,-655 -87,-314 1035,-1479 922,-958 4916,-7214 5422,-7809 837,-986 1549,-1987 2470,-2765 725,-613 860,-1382 2396,-2699l2637 -2515c423,-516 852,-983 1257,-1330 395,-339 1020,-593 1523,-1000l2979 -2070c181,204 80,-50 237,359 20,51 108,422 131,504l1698 4454c255,544 844,1219 1057,1534 -215,443 -3366,2923 -4093,3632 -950,928 -2015,1507 -2548,2132 -589,691 -884,1086 -1492,1717 -290,299 -545,405 -809,726 -187,226 -429,731 -693,985 -1932,1856 -1286,1269 -2990,3402 -455,569 -55,322 -1303,1802 -1528,1811 -3952,5499 -5613,7369 -976,1098 -1940,2682 -2596,3968 -470,920 -201,433 -709,924 -219,211 -388,659 -645,984zm-18927 -19654c-388,2030 791,1815 1614,3054 831,1251 2127,2759 3112,3944l3550 3632c387,379 779,897 1130,1291l5544 6283c444,634 2636,2937 3230,3857 387,598 875,837 1666,647 234,-56 109,155 397,-310 57,-94 137,-296 191,-432 470,-1184 -186,-292 1028,-2716 605,-1208 1278,-1997 1991,-3088 375,-574 715,-876 1112,-1383 1533,-1963 1678,-2667 2990,-4477 465,-641 348,-249 1077,-1420 271,-437 717,-816 1068,-1265 265,-340 286,-543 535,-812 1321,-1428 516,-621 1562,-1962l2192 -2642c321,-336 817,-553 1333,-1063l2441 -2470c264,-241 209,-323 531,-625 215,-201 368,-341 598,-551l2552 -2297c489,-417 812,-681 1326,-1076 1911,-1467 1013,-2232 512,-2912l-1330 -3233c-220,-622 -360,-991 -581,-1552 -531,-1347 -677,-3524 -2405,-3103 -1767,431 -2184,873 -3646,1977 -495,373 -872,623 -1391,984l-3610 3578c-403,503 -824,627 -1305,1121 -2020,2074 -5105,5646 -6510,8171 -1033,1858 -2550,3148 -3923,5932 -671,-265 -105,-99 -647,-422l-501 208c-495,-5 -1458,-1235 -1952,-1662 -893,-773 -1299,-1718 -1790,-2414 -856,-1212 -2974,-3824 -3290,-5044 -238,-919 -713,-2314 -1913,-2326 -427,-4 -429,228 -507,749 -405,7 -447,-224 -1049,851 -941,1683 41,21 -1512,2010 -964,1234 -1968,1083 -3866,2010 -1072,524 -303,-405 -1554,958z"/></g></svg>