<svg xmlns="http://www.w3.org/2000/svg" xmlns:xlink="http://www.w3.org/1999/xlink" version="1.1" x="0px" y="0px" viewBox="0 0 73 91.25" style="enable-background:new 0 0 73 73;" xml:space="preserve"><g><path d="M57.598114,28.6673412c-0.2764091-0.2607632-0.7467766-0.2960682-1.0584106,0.0391235l-0.0001221-0.0557861   c-0.4578857,0.2093506-0.9157104,0.4187012-1.3735962,0.6280518c-0.428894,2.3399658-0.6511841,4.7446308-0.7077637,7.1571064   C49.474823,36.5252533,44.45578,36.4096527,39.4948425,36.073349c-0.0080566-1.4118652-0.9204102-2.5981445-2.184082-3.0385132   c0.3377686-4.7174091,0.4846802-9.4772968,0.4415283-14.2044086c2.2626343-0.0012207,4.5238037-0.1405029,6.7372437-0.4126587   c0.0960083-0.4271851,0.1919556-0.8543701,0.2879639-1.2815552c0.5671082-0.1457253,0.7193451-0.7480106,0.4260864-1.1485586   c-2.2779579-3.1123018-4.2819595-6.6800928-6.40625-10.015625c-0.2580452-0.4043393-0.8323326-0.4702353-1.1748047-0.1152344   c-2.9808044,3.1123676-6.1996231,6.791852-9.1103497,9.828125c-0.3158283,0.3299704-0.2819805,0.8984957,0.1679688,1.1604605   c0.1889038,0.4154663,0.3777466,0.8309937,0.5665894,1.24646c2.2904053,0.4251709,4.6433697,0.6506958,7.0051861,0.7184448   c0.0437012,4.6838989-0.1008301,9.4002075-0.4349976,14.074892c-1.199585,0.1602173-2.187439,0.9642944-2.6022949,2.062439   c-4.821043,0.0217896-9.6796856-0.1691284-14.494566-0.5523071c0.1725464-2.3563232,0.1918945-4.7236958,0.0651245-7.04883   c-0.5349731-0.1590576-1.0698853-0.3179932-1.6048584-0.4770508c-0.1157551-0.5694695-0.7746296-0.7853069-1.2072153-0.4296265   c-3.2335682,2.6862602-7.1716928,5.6683941-10.4492188,8.3896503c-0.3735299,0.3116188-0.3574619,0.8889656,0.0322266,1.1796875   c3.1380296,2.3285065,6.5752292,4.59338,9.5371094,7.1005859c0.316082,0.2667618,0.7964916,0.2342567,1.0676279-0.1032715   c0.421814-0.1581421,0.8435059-0.3162842,1.2653198-0.4744263c0.5548096-2.1602173,0.9291382-4.3903809,1.1606445-6.6402588   c5.0907021,0.4041786,9.8329544,0.5754738,14.4465313,0.5634155c0.1477051,1.3101196,1.0646362,2.3748779,2.2960815,2.7391968   c0.0818481,4.8571777-0.0483398,9.7615356-0.3744507,14.6270142c-2.3954468-0.1380615-4.8003521-0.116394-7.1591167,0.0539551   c-0.1557007,0.5598145-0.3114014,1.1196289-0.4671021,1.6794434l0.0646973,0.0032349   c-0.5392189,0.1536446-0.7147541,0.795311-0.3676147,1.203064c2.749321,3.2309418,5.7476444,7.099926,8.5117168,10.3496094   c0.1425781,0.1679688,0.3515625,0.2636719,0.5712891,0.2636719c0.0097656,0,0.0195313,0,0.0292969-0.0009766   c0.2294922-0.0087891,0.4433594-0.1230469,0.578125-0.3085938c2.2811546-3.1494484,4.5158272-6.6292267,6.9892578-9.6201172   c0.2516289-0.3028069,0.2496033-0.798336-0.1501465-1.0809937c-0.1841431-0.4658813-0.3682251-0.9317627-0.5523682-1.397583   c-2.1350098-0.5083618-4.3345947-0.8403931-6.5515747-1.0339355c0.3261719-4.8728027,0.4577637-9.7837524,0.3789063-14.6491699   c1.0131836-0.1843262,1.852478-0.8394165,2.3041992-1.7293701c6.0851135,0.4219017,10.6308784,0.4602585,15.3126221,0.3776245   c0.0123291,2.2140503,0.1561279,4.4255371,0.4273071,6.5909424c0.4599609,0.1022949,0.9199219,0.2045898,1.3798828,0.3068848   c0,0.0001221,0,0.0002441,0,0.0003662c0.0563774,0.5763092,0.7215576,0.8812027,1.1953125,0.5302734   c3.0934982-2.3082809,6.6348572-4.3401489,9.9560547-6.5c0.4067307-0.2649918,0.459053-0.8429184,0.1044922-1.1748047   C64.4453964,34.8000412,60.670414,31.5552616,57.598114,28.6673412z M15.0307322,41.1155853   c-2.507122-2.0151215-5.2606297-3.8850784-7.8076167-5.7421875c2.7148662-2.2220955,5.7839599-4.5789814,8.5322266-6.8134785   C15.856904,32.743515,15.61374,36.9544525,15.0307322,41.1155853z M41.7113953,57.5306244   c-1.9859886,2.5312729-3.8124657,5.2890282-5.6503906,7.8740234c-2.2081795-2.6320686-4.6320133-5.711216-6.9121075-8.4501953   C33.332489,56.8030853,37.5463562,56.9964447,41.7113953,57.5306244z M30.6430206,15.6165609   c2.4205971-2.5770741,4.9620438-5.4447489,7.4013824-8.0263672c1.6555672,2.642415,3.320961,5.5209684,5.1738281,8.1953125   C39.0297546,16.0706615,34.8110046,16.015974,30.6430206,15.6165609z M57.6342468,43.3724213   c-0.3251953-4.1865234-0.3076172-8.4052734,0.0517578-12.5761738c2.5970573,2.3936825,5.5397644,4.9546223,8.0947266,7.3261738   C63.1463852,39.8061943,60.2788353,41.5033569,57.6342468,43.3724213z"/></g><text x="0" y="88" fill="#000000" font-size="5px" font-weight="bold" font-family="'Helvetica Neue', Helvetica, Arial-Unicode, Arial, Sans-serif">Created by Smashing Stocks</text><text x="0" y="93" fill="#000000" font-size="5px" font-weight="bold" font-family="'Helvetica Neue', Helvetica, Arial-Unicode, Arial, Sans-serif">from the Noun Project</text></svg>