<svg xmlns="http://www.w3.org/2000/svg" xmlns:xlink="http://www.w3.org/1999/xlink" version="1.1" x="0px" y="0px" viewBox="0 0 1024 1280" style="enable-background:new 0 0 1024 1024;" xml:space="preserve"><g><g><path d="M913.7,542.7c-90.1-5.2-181.4-5.8-271.4-1.6l-1.8-40c88.9-4.1,179.1-3.6,268.1,1.3l0.2-0.9l9.4,1.6L913.7,542.7z"/></g><g><path d="M802.7,667.1l-29.9-26.5l107.1-120.9l-1.1-1.2c-40.2-46-85.5-87.9-134.5-124.3l23.9-32.1c51.4,38.1,98.7,81.9,140.8,130.1    l24.4,27.6L802.7,667.1z"/></g><g><path d="M540.8,889.7l-40-1.1c2.3-81.8,1.3-164.7-3.2-246.4l39.9-2.2C542.1,722.8,543.2,806.8,540.8,889.7z"/></g><g><path d="M509.3,941.6l-147.5-169l30.1-26.3l122.9,140.9c49.2-37.3,98.4-74.5,147.7-111.8l24.1,31.9    c-50.1,37.9-100.2,75.9-150.3,113.8L509.3,941.6z"/></g><g><path d="M146.1,544.6l-4.4-39.8c88-9.7,177.4-12.7,265.9-9.1l-1.6,40C319.5,532.1,232.1,535.1,146.1,544.6z"/></g><g><path d="M269.8,686.4c-39-59-90.4-111.4-148.6-151.4l-18.5-12.8l14.8-16.9c46.8-53.4,98.8-102.7,154.6-146.6l24.8,31.4    c-48.1,37.9-93.2,79.9-134.6,125.2c54.9,41,103.3,92.2,140.9,149.1L269.8,686.4z"/></g><g><path d="M499.8,401.9c-3.5-86.8-4.2-175.1-2.2-262.3l40,0.9c-2,86.4-1.3,173.8,2.2,259.7L499.8,401.9z"/></g><g><path d="M391,295.4l-28.6-27.9l158.3-162.2l14.2,11.4c55.5,44.6,104.4,96.6,145.5,154.7l-32.7,23.1    c-35.5-50.1-77.1-95.5-123.9-135.1L391,295.4z"/></g></g><text x="0" y="1039" fill="#000000" font-size="5px" font-weight="bold" font-family="'Helvetica Neue', Helvetica, Arial-Unicode, Arial, Sans-serif">Created by shashank singh</text><text x="0" y="1044" fill="#000000" font-size="5px" font-weight="bold" font-family="'Helvetica Neue', Helvetica, Arial-Unicode, Arial, Sans-serif">from the Noun Project</text></svg>