<svg xmlns="http://www.w3.org/2000/svg" xmlns:xlink="http://www.w3.org/1999/xlink" xml:space="preserve" version="1.1" style="shape-rendering:geometricPrecision;text-rendering:geometricPrecision;image-rendering:optimizeQuality;" viewBox="0 0 50800 63500" x="0px" y="0px" fill-rule="evenodd" clip-rule="evenodd"><defs><style type="text/css">
   
    .fil0 {fill:black}
   
  </style></defs><g><path class="fil0" d="M4502 46726c235,-117 -275,-295 369,-49 -275,253 380,214 -183,140l-186 -91zm1927 -1028c-118,540 152,364 -439,451 163,-675 -10,-293 439,-451zm1906 -2451c92,-285 -191,-296 509,-368 -18,457 -61,580 -509,368zm5491 -8689c993,695 1502,-158 2601,-608 960,-393 1859,-731 2893,-1122 -60,581 -465,1514 -635,3351 -137,1477 -382,2407 -195,3866 -791,-97 -8266,4269 -9281,4409 113,-1065 819,-1465 498,-2582 -957,-115 -669,192 -1421,325 -626,110 -1163,-52 -1718,105 -98,-679 309,-1387 623,-1997 402,-778 391,-1117 738,-1908 284,-648 448,-1292 783,-1858l1606 -3819c548,-1158 377,-808 1460,-1335 1514,-736 2294,-1139 4300,-1311 -170,898 -564,1800 -936,2587 -495,1047 -726,1003 -1085,1438 -184,223 -169,184 -231,459zm-1957 -4089c163,-489 466,-841 893,-1302 502,-545 748,-1360 1329,-1869 879,-769 1401,-2079 2308,-2863 622,-536 935,-1108 1397,-1767l9372 -11376c198,-188 301,-298 479,-495 714,-792 2289,-2907 2862,-3404 700,-608 403,-616 851,-1230 490,-673 254,-78 681,-438 224,-188 -40,-204 466,-504 800,-476 2194,-661 3187,-867 1736,-361 3328,-104 4655,1164 1223,1169 1686,2558 1626,4329 -34,972 -609,2624 166,3263 533,-438 321,-1577 471,-2477 435,-2602 -268,-4967 -2380,-6392 -2145,-1447 -4742,-741 -7209,-160 -752,177 -1544,474 -1522,1358 -502,11 -878,132 -1030,526 -603,1563 -2077,3076 -3146,4371l-4092 4813c-754,1002 -1791,2386 -2644,3335 -480,533 -868,1061 -1399,1668 -280,320 -385,526 -676,854l-2670 3320c-232,320 -415,391 -678,707 -226,271 -389,585 -636,898 -723,914 -1733,1821 -2429,2840 -1069,1566 -1293,1289 -1833,1803 -393,375 -38,250 -694,653 57,756 293,543 -1,1287 -1048,2655 -3470,9507 -4717,11710 -537,949 -1040,2859 -1280,3181 -510,682 -193,1386 1379,261l2330 -1430c843,-485 548,-177 1377,-427 465,-325 -413,-133 1254,-973 459,-231 1033,-372 1491,-601 500,-251 727,-537 1249,-837 1768,-1017 3816,-1962 5672,-2817 867,-400 1912,-178 2355,-1258l1087 -1978 2165 -2428c425,-533 1030,-1213 1425,-1635 1013,-1082 2966,-3902 3768,-4701l1368 -1575c632,-1139 2198,-2644 3147,-3669 477,-513 986,-1272 1453,-1621 613,-460 302,-222 752,-765 170,-205 187,-179 316,-379 1293,-2008 2998,-3569 4391,-5497 442,-611 1138,-1058 1184,-1780 -668,-135 -618,-84 -929,371 -195,286 -441,515 -682,848l-1981 2611c-618,885 -1392,1604 -2107,2480l-6974 8190c-578,631 -810,1150 -1373,1697l-5640 6605c-766,846 -1457,1592 -2067,2527 -102,156 -128,245 -269,423 -326,410 -10,137 -397,305l-316 -976c-24,-1106 289,-2064 455,-3198 485,-3307 1595,-2061 1333,-3284 -658,-392 -777,-14 -1291,256l-4248 1697c156,-370 32,-97 162,-347 445,-856 925,-2267 1472,-2976 395,-514 478,-258 777,-777 -527,-793 -330,-358 -1263,-280 -1777,150 -2828,504 -4532,1002z"/></g><text x="0" y="50815" fill="#000000" font-size="5px" font-weight="bold" font-family="'Helvetica Neue', Helvetica, Arial-Unicode, Arial, Sans-serif">Created by Alex Muravev</text><text x="0" y="50820" fill="#000000" font-size="5px" font-weight="bold" font-family="'Helvetica Neue', Helvetica, Arial-Unicode, Arial, Sans-serif">from the Noun Project</text></svg>