<svg xmlns="http://www.w3.org/2000/svg" xmlns:xlink="http://www.w3.org/1999/xlink" xml:space="preserve" version="1.1" style="shape-rendering:geometricPrecision;text-rendering:geometricPrecision;image-rendering:optimizeQuality;" viewBox="0 0 50800 63500" x="0px" y="0px" fill-rule="evenodd" clip-rule="evenodd"><defs><style type="text/css">
   
    .fil0 {fill:black}
   
  </style></defs><g><path class="fil0" d="M10197 41072c434,-5 206,12 542,-115 -374,702 -498,367 -550,1302 -483,236 -512,566 -983,717 170,-520 402,-1053 598,-1645 103,-312 123,-562 221,-879 120,-387 173,-417 277,-928l672 -19c265,-717 1092,-1607 1713,-1896 -69,554 -255,560 -526,911 -605,786 -1916,2160 -1964,2552zm796 594c133,-409 390,-633 625,-935 267,-344 440,-652 742,-1013 463,263 28,195 548,405 830,-509 1929,-3033 2483,-3229 -180,692 -1044,2479 -1515,2990 -353,382 -841,696 -1339,933 -601,287 -1051,619 -1544,849zm3369 -5396c12,-395 -39,-259 253,-542 234,-227 253,-300 584,-214 -175,595 77,26 -357,448 -392,381 106,257 -480,308zm-3710 2383c55,-455 872,-1802 1166,-2141 338,-389 1483,-1138 2186,-1238 -209,594 -18,98 -814,941 -238,251 -505,607 -797,870 -423,379 -1359,1391 -1741,1568zm10702 -8926c-395,-419 -867,-906 -1328,-1149 59,-811 6,-585 -114,-1245 78,-626 1437,-1833 1714,-2625 205,-586 3438,-4455 3796,-4802l2193 -2105c2621,-2811 6198,-5668 9508,-7690 486,-296 7229,-3597 7838,-3753l-304 551c-107,182 -142,283 -251,459 -179,290 -398,596 -560,868l-1724 2695c-654,843 -2146,2703 -2402,3449 -210,611 -2689,3359 -3287,4004 -1051,1131 -3391,3018 -4656,4177 -1104,1011 -2002,1797 -3237,2612 -1425,940 -5608,4542 -7186,4554zm-6972 4550c-1014,66 -2398,1197 -3126,1790l-565 626c-1019,1579 -1158,2985 -1640,4460 -569,1743 -934,2724 -2019,4188 -310,419 -430,305 -413,842 944,764 813,-765 2394,-2209l2164 -1657c1090,-767 1869,-824 2511,-1308 564,-425 908,-741 1214,-1404 184,-398 698,-1352 761,-1765 221,-1434 580,-904 709,-1949 -584,-219 -482,-37 -825,-576 -217,-341 -476,-645 -610,-937 1460,-1869 2832,-4005 4537,-5583 666,200 853,686 1344,1019 338,229 225,15 477,385 -279,280 -471,332 -775,566 -932,718 -3088,3003 -4028,3861 -408,372 -598,220 -561,803 183,37 249,151 798,-113 427,-205 222,-375 1367,-1480 763,-736 1385,-1384 1945,-1876 280,-246 676,-680 969,-945 1192,-1082 539,-393 1129,-776 104,-68 442,-366 534,-421 542,-322 628,-187 1808,-1062 758,-563 1433,-1057 2225,-1590 1682,-1134 2126,-1168 3835,-2857 155,-153 298,-259 517,-438l3027 -2706c2348,-1940 4763,-4470 6402,-6971l5528 -7833c370,-443 847,-886 408,-1097 -481,-230 -853,299 -1335,513 -2826,1254 -5063,1970 -7921,3548 -3353,1851 -6508,4320 -9154,7082 -219,229 -297,245 -543,532 -650,758 -1172,1333 -1840,1983l-2646 3086c-1592,2098 -1058,558 -1945,1871 -534,791 -1893,2828 -2069,3598l-556 1181c-302,515 -421,722 -688,1234l-3344 4385z"/><path class="fil0" d="M31725 20576c254,-1366 487,-1169 1236,-1849 510,-463 963,-1169 1602,-1446 25,726 -60,748 -460,1158 -293,300 -366,507 -669,765 -315,268 -638,462 -866,685 -418,410 -179,508 -843,687zm3240 -3129c156,-1214 813,-1639 1298,-2454 1342,-2255 1636,-1280 1462,-2229 -1176,-377 -1502,1584 -1956,2202 -224,305 -116,171 -331,320 -8,-405 99,-954 -125,-1187 -995,-1035 -256,1758 -657,2375 -336,518 -2220,2339 -2360,2521l-138 -159c-214,-199 -9,-227 -408,-234 -390,-7 -288,74 -326,357 -57,417 49,761 -97,1361 -405,1659 -276,938 -1166,1818 -511,505 -2512,2515 -3166,2730 328,-1270 463,-659 596,-1371 -727,-89 -735,19 -905,668 -149,569 -167,674 -30,982 6,13 36,82 40,65 5,-16 34,40 42,64 -496,201 -1663,1104 -2229,1479 -880,584 -2093,662 -2357,1294 453,478 782,17 1173,-209 437,-252 887,-401 1289,-621 1229,-672 3289,-2369 4289,-3353 295,-291 667,-641 974,-935 1078,-1037 502,-660 1185,-497 89,-666 321,-938 710,-1312 190,-183 308,-280 488,-463 220,-224 208,-261 470,-489 274,-239 847,-811 1081,-959 483,-306 226,-16 663,-285 434,-268 4093,-4352 3761,-4742 -535,-626 -942,863 -1585,1545 -478,507 -1122,1422 -1685,1718z"/><path class="fil0" d="M33176 13480c339,567 469,242 1543,-394l3133 -2123c351,-259 371,-313 744,-569 641,-441 594,-399 748,-776 -767,180 -3650,2328 -4582,2908l-1394 765c-192,145 -53,-2 -192,189z"/></g><text x="0" y="50815" fill="#000000" font-size="5px" font-weight="bold" font-family="'Helvetica Neue', Helvetica, Arial-Unicode, Arial, Sans-serif">Created by Alex Muravev</text><text x="0" y="50820" fill="#000000" font-size="5px" font-weight="bold" font-family="'Helvetica Neue', Helvetica, Arial-Unicode, Arial, Sans-serif">from the Noun Project</text></svg>