<svg xmlns="http://www.w3.org/2000/svg" xmlns:xlink="http://www.w3.org/1999/xlink" xml:space="preserve" version="1.1" style="shape-rendering:geometricPrecision;text-rendering:geometricPrecision;image-rendering:optimizeQuality;" viewBox="0 0 50800 63500" x="0px" y="0px" fill-rule="evenodd" clip-rule="evenodd"><defs><style type="text/css">
   
    .fil0 {fill:black}
   
  </style></defs><g><path class="fil0" d="M4501 45574c109,-1053 304,-1733 648,-2672 709,-1934 1203,-6782 1778,-7718 188,-305 52,-111 201,-279l6006 6679c256,317 243,266 491,524 582,606 1200,1105 1556,1732 -1904,181 -3598,458 -5566,651 -1878,184 -3516,896 -5114,1083zm3876 -12532c460,-999 2007,-1494 2577,-2797 890,338 1789,1932 2358,2651 1361,1718 4417,4524 5810,6451 553,766 710,724 1408,1162 -154,435 -702,1179 -968,1522l-1204 1450c-344,-181 -22,53 -365,-263 -72,-66 -190,-211 -278,-305 -1106,-1180 -1861,-1790 -3056,-3287l-3660 -3985c-857,-819 -1940,-1597 -2622,-2599zm4477 -4616c257,-437 831,-1123 1166,-1453 601,-591 811,-856 1272,-1325 455,-462 796,-909 1282,-1314 2112,-1759 4185,-4210 6520,-6318 1627,-1469 1508,-1636 2835,-2359l2915 -2278c673,-525 4451,-4543 5238,-5056 1058,520 1826,1687 2603,2500l6959 8083c-202,309 -1714,1290 -2839,2395 -454,446 -919,724 -1421,1176 -479,432 -774,943 -1271,1326 -455,352 -1083,688 -1557,1041 -617,458 -707,715 -1314,1279 -521,485 -927,616 -1499,1101 -520,441 -782,900 -1278,1319 -507,427 -967,673 -1496,1097 -552,442 -819,836 -1319,1279 -457,404 -973,792 -1408,1188 -777,709 -5300,6241 -6277,6762l-4761 -5109c-1352,-1368 -1437,-1923 -2177,-2723 -403,-436 -819,-840 -1190,-1261 -382,-433 -748,-677 -983,-1350zm22987 -21493c868,-1091 1701,-1407 2569,-2091 559,895 170,854 1201,1132 1029,278 2652,3050 3567,3979 1395,1416 3551,4476 4748,5327 -392,781 -1546,1991 -2448,2374 -759,-369 -1696,-2239 -2312,-2925 -962,-1073 -1531,-1847 -2350,-2701 -459,-476 -842,-840 -1268,-1330 -352,-405 -851,-967 -1175,-1277 -605,-579 -2103,-1893 -2532,-2488zm-15539 38464c305,-1143 -359,-340 890,-1732 222,-247 371,-492 589,-710l2018 -1878c477,-440 794,-877 1264,-1332 1791,-1738 3225,-3687 5017,-5368 453,-426 879,-706 1407,-1185 1132,-1027 3601,-2990 4158,-3637 411,-476 721,-981 1147,-1448 422,-462 847,-756 1404,-1191 1552,-1213 4710,-4653 5313,-5070 2280,-1576 2150,-1842 2861,-2333 2196,-1516 1529,-1341 2865,-2331 1056,-782 629,-1087 646,-1702 56,-2148 -390,-1168 -1780,-3236 -2241,-3335 -2559,-2884 -4720,-5668 -360,-465 -883,-833 -1277,-1317 -330,-406 -2094,-2828 -3095,-2046 -19,15 -83,246 -124,158 -9,-21 -25,59 -42,85 -494,-332 -1287,-743 -2041,-291 -192,115 -1076,846 -1340,1107 -612,605 -540,322 -1396,1205 -291,300 -411,279 -710,584l-1970 1781c-1269,1086 -374,346 -1432,1020 -819,522 -1739,1671 -2511,2538l-1942 1952c-1586,1412 -1852,1051 -3514,2692l-4893 5060c-682,943 -1546,1602 -2492,2552l-4168 4780c-284,266 -420,224 -643,511 -213,274 -200,437 -521,776l-1982 1628c-1212,1070 -1428,1103 -1781,2120 -977,2814 -1280,6226 -2133,9106 -315,1064 -846,2744 -818,3973 1854,1702 2057,1267 3587,827 3186,-916 6127,-1232 9474,-1401 1874,-94 3367,410 4685,-579z"/></g><text x="0" y="50815" fill="#000000" font-size="5px" font-weight="bold" font-family="'Helvetica Neue', Helvetica, Arial-Unicode, Arial, Sans-serif">Created by Alex Muravev</text><text x="0" y="50820" fill="#000000" font-size="5px" font-weight="bold" font-family="'Helvetica Neue', Helvetica, Arial-Unicode, Arial, Sans-serif">from the Noun Project</text></svg>