<svg xmlns="http://www.w3.org/2000/svg" xmlns:xlink="http://www.w3.org/1999/xlink" xml:space="preserve" version="1.1" style="shape-rendering:geometricPrecision;text-rendering:geometricPrecision;image-rendering:optimizeQuality;" viewBox="0 0 50800 63500" x="0px" y="0px" fill-rule="evenodd" clip-rule="evenodd"><defs><style type="text/css">
   
    .fil0 {fill:black}
   
  </style></defs><g><path class="fil0" d="M11105 42304c360,449 360,401 177,675 -318,-117 -505,30 -177,-675zm8044 -10829c250,-978 113,-2481 178,-3368 63,-850 455,-892 531,-1251 11,-53 52,-61 75,-94 -1269,-811 -2534,513 -3716,1037 -596,264 -4391,1980 -4661,804 -15,-68 -62,-79 -97,-116 -315,216 -876,723 -1097,1111l331 422c14,-30 61,73 92,110 -94,1000 8,2065 -112,2934 -213,1544 -769,6192 -1502,6991 103,669 74,205 240,886 -370,561 -598,464 -817,1047l-770 3916c324,369 222,252 596,478 -634,403 -1214,633 -1433,1489 2404,-334 4559,-1378 6622,-2654 985,-610 1868,-1090 2947,-1657 2681,-1410 2351,-1465 4216,-2693 1648,-1085 1308,-757 2409,-2185l2466 -2138c826,-169 399,-61 1074,-895 591,-731 1628,-1680 2262,-2344 1363,-1424 5308,-5763 6342,-7480 900,-1494 3077,-3523 4228,-4991l2881 -4023c1088,-1833 3223,-3285 1131,-4015l-79 -922c314,-122 220,537 362,2 7,-26 55,5 81,-2 14,-966 103,-955 48,-1830l350 853c120,-1197 -990,-2375 -1863,-3089 -889,1110 -7,3439 225,4669 -1190,27 -2800,37 -3743,623 -782,-750 -963,-1453 -1583,-2145 -676,-754 -1321,-968 -2060,-1606l263 -1041c-387,267 -406,465 -668,627 -512,315 -347,26 -953,252 -225,686 402,168 -413,1022 -342,357 -370,399 -739,852l-3944 4559c-261,282 -479,554 -724,873 -1060,1381 -1935,2402 -3123,3611 -591,601 -2729,2939 -2914,3688 578,-208 2439,-1647 2590,-1893l-108 617c1545,-963 4629,-5266 6042,-6905l3309 -4185c-634,320 -772,686 -1331,1129 489,-911 1239,-2107 2078,-2653 845,251 2211,1361 2551,2148 -639,783 -1344,1249 -1992,2155 -1176,1642 -2356,2833 -3621,4529l-5029 7201c-706,1044 -3117,3730 -3410,4779 388,-75 290,-41 554,-187 444,-246 668,-630 955,-1004 367,-477 734,-854 1272,-1142l-138 646c616,-528 842,-1223 1511,-1816 704,-624 788,-568 1327,-1326l684 -605c27,-22 72,-51 98,-74l3952 -5414c218,-388 68,-427 183,-708 12,-28 37,-76 51,-104l2162 -3164c359,-561 312,-657 595,-1168 147,-265 448,-741 593,-1002 -56,-18 -205,-71 -214,-75l476 -1410c489,256 180,51 541,345l974 879c1721,-668 3022,722 4614,-89 -1945,3202 -7169,10136 -9485,12319l-4009 4139c-1617,1639 -4658,6594 -6229,7348 65,-1342 279,-2733 204,-3750 -13,-187 -74,-318 -121,-579 -140,-785 -43,-840 -21,-1563 -1617,1179 -1296,4639 -1602,6895 -1007,937 -3319,2047 -4657,2784 -825,454 -1543,934 -2401,1330 -932,430 -1443,1020 -2399,1272 368,-1003 91,-1722 -570,-2449 -508,-558 -984,-982 -1850,-1316 386,-2783 1278,-5305 1393,-8089 648,-176 416,-625 652,-1407 2557,-273 3370,-672 5411,-1357 30,1080 -362,2603 341,3344 629,320 986,-159 1135,-742z"/><path class="fil0" d="M28347 9393c958,-817 4416,-5128 4756,-5901 -571,275 -204,141 -604,363 -954,529 -382,-350 -1193,579l-19861 23987c1368,-370 4188,-3244 5005,-4288 259,-332 398,-391 609,-626 214,-237 221,-361 464,-636 622,-705 -57,465 874,-671 677,-827 1472,-1678 2069,-2560 1591,-2349 5387,-6522 7214,-8911 347,-454 579,-900 931,-983l-154 -251c-12,-17 -71,-71 -110,-102z"/><path class="fil0" d="M34887 6557c25,-1406 -238,-2262 -803,-3264 938,107 592,203 1314,382 1645,409 3083,91 3825,987 572,691 2143,3125 3098,2781 -122,-471 -818,-1263 -1184,-1683l-1269 -1403c651,-393 512,-201 436,-1140 -2195,-441 -4545,-751 -6819,-661 -436,1235 167,1410 355,2699 141,962 -167,2567 344,3271l363 -1969c606,-230 -564,-17 125,19 171,9 -47,80 215,-19z"/><path class="fil0" d="M36709 7603c-5,789 540,1278 1136,1481 661,225 1349,401 2321,348 -6,-837 -67,-548 -195,-1086 -142,-598 19,27 52,-911 -697,-193 -3304,-1793 -3314,168z"/><path class="fil0" d="M17654 33170c1489,549 4211,-439 4583,-1767 -814,-1 -1497,546 -2290,830 -407,146 -851,298 -1255,371 -1262,230 -867,67 -1038,566z"/></g><text x="0" y="50815" fill="#000000" font-size="5px" font-weight="bold" font-family="'Helvetica Neue', Helvetica, Arial-Unicode, Arial, Sans-serif">Created by Alex Muravev</text><text x="0" y="50820" fill="#000000" font-size="5px" font-weight="bold" font-family="'Helvetica Neue', Helvetica, Arial-Unicode, Arial, Sans-serif">from the Noun Project</text></svg>