<svg xmlns="http://www.w3.org/2000/svg" xmlns:xlink="http://www.w3.org/1999/xlink" version="1.1" x="0px" y="0px" viewBox="0 0 100 125" style="enable-background:new 0 0 100 100;" xml:space="preserve"><path d="M92.9,16.5c0.8-0.2,0.8-1,0.8-1.5c0.1-2.4,1.6-4.5,1.9-6.9c0-0.3,0.3-0.5,0.6-0.4c0.2,0,0.4,0.2,0.4,0.4  c0.1,0.9,0.2,1.8,0.7,2.6c0.1,0.2-0.1,0.5-0.3,0.8c-1,1.5-1.8,3.3-2,5c-0.6,4.9-3.2,9.2-3.9,14.1c-0.4,2.4-1.7,4.5-2,6.8  c-0.9,5.5-3,10.6-4.6,15.8c-0.5,1.6-1,3.2-1.2,4.9c-0.2,1.6-1.8,2.9-3.4,3.2c-1.5,0.2-3,0.4-4.6,0c-0.4-0.1-1.2-0.5-1.6,0.4  c-0.3,0.5-0.7-0.1-1-0.4c-2-1.8-4.3-3.3-5.9-5.8c-1.9,2.6-4.7,4-6.7,6.2c-2,2-4,4-6.1,5.9c-1.7,1.5-3.6,3-5,4.9  c-1.4,1.8-3.2,3.3-4.9,4.9c-3,3.1-6,6.1-8.9,9.2c-0.4,0.4-0.8,0.8-1.3,1.1c-2.3,1.3-4.1,3-5,5.5c-0.2,0.5-0.6,0.6-1,0.7  c-0.7,0.3-1.5,0.3-2.3,0.1c-1.9-0.6-3.8-0.2-5.7-0.4c-0.1,0-0.2,0-0.2,0c-1.1-0.6-2.3,2-3.4-0.2c-0.6-1.1-1.9-1.6-2.8-2.5  C11,88,8.7,84.9,6,82.2c-1.3-1.3-1.8-3.1-3.1-4.4c-0.5-0.5,0-0.8,0.4-1.2c3-2.6,5.8-5.3,8.4-8.3c1.1-1.2,2.2-2.4,3.2-3.6  c2.6-3.4,6-5.9,8.9-9c3.6-3.8,7.9-6.8,11.6-10.4c0.9-0.8,1.9-1.5,2.9-2.1c2.8-1.7,4.9-4.1,7.2-6.6c-1.7-2.3-3.4-4.5-5.2-6.7  c-1-1.3-1.8-2.7-2.7-4c-0.3-0.5-0.4-0.9,0.3-1.2c0.6-0.2,0.9-0.7,1.4-0.9c2.8-0.8,5.2-2.4,7.9-3.4c1.9-0.7,4-1.2,5.7-2.2  c3.5-2,7.4-2.9,11-4.5c6.9-3.1,14.2-5.4,21.4-7.7c2-0.6,4.1-0.9,6.1,0c0.9,0.4,2,0.6,3.1,0.6c0.3,0,0.8-0.2,0.7,0.3  c0,0.4,0.1,1.1-0.6,1.2c-0.9,0.1-1.9,0.5-2.9-0.1c0.1,0.7,0.8,0.6,0.8,1.2c-0.4,0.4-1-0.1-1.4,0.3c0.2,0.4,1,0.5,0.7,1.3  c-1.1-0.3-2.4-0.9-3.6,0.4c1.6,0.5,3.3-0.3,4.9,0.8c-1.1,0.6-2,0.2-2.8,0.2c-2.6,0-2.7,0.1-3.3,2.9c1.2,0.6,2.6,0.3,3.9,0.5  C91.7,15.9,92.5,15.8,92.9,16.5c-1,0.7-2.2-0.4-3.3,0.3c0.5,0.7,1.8,0.5,2,1.9c-1.3-0.2-2.2-1-3.4-1.1c-1.7-0.1-1.9,0-2.2,1.9  c1.4,0.1,2.8,0.1,4.1,0.2c2.2,0.3,2.1,0.4,2.7-1.8C93,17.5,93,17,92.9,16.5z M44.7,66c2,0.1,4,0.6,5.9,1.1c1.1,0.3,1.7,0.1,2.4-0.9  c-1.6-0.7-3.2-0.9-4.9-1c-0.4,0-1.1,0.5-1.1-0.4c0-0.7,0.7-0.5,1.2-0.5c1.2-0.1,2.3,0.2,3.5,0.6c0.8,0.3,1.8,0.7,3-0.2  c-1.9-0.6-3.4-1.2-5.1-1.2c-0.5,0-1-0.1-0.9-0.8c0.8-0.4,2.1,0.5,2.4-1.1c0-0.3,0.6-0.1,1,0c1.3,0.3,2.6,0.6,3.9,0.9  c0.5,0.1,0.9,0.1,1-0.4c0.1-0.4-0.4-0.5-0.7-0.6c-0.9-0.3-2-0.3-3-1c1.4-0.4,1.4-0.4,2.1-0.2c0.7,0.2,1.3,0.5,2,0.6  c0.7,0.2,1.4,0,1.5-0.7c0.1-0.6-0.7-0.5-1.1-0.7c-1-0.5-2.3-0.3-3.2-1.5c1.7-0.1,3,0.5,4.2,1c1.2,0.5,1.8,0,2.3-1  c-1.7-1.1-3.7-0.7-5.4-1.3c-0.4-0.1-0.6,0.1-0.9,0.4c-1.9,1.6-3.8,3.1-5.7,4.7c-0.3,0.2-0.6,0.4-0.4,0.9C47,63.4,46,64.9,44.7,66  c-0.4,0.3-0.9,0.5-0.8,1.1c0.1,0.5,0.7,0.3,1.1,0.3c0.4,0,0.8,0,1.2-0.1C45.6,67.1,44.9,66.9,44.7,66z M16.9,90.5  c0.2-0.1,0.4-0.2,0.5-0.4c2.2-2.5,4.5-5,7.1-7.2c1.5-1.2,2.8-2.5,4.2-3.8c0.3-0.3,0.8-0.7,0.8-0.9c-0.2-1,0.5-1.2,1.1-1.6  c2.8-2.3,5.9-4.4,8.4-7.1c0.7-0.7,1.3-1.4,2.1-2.1c6.9-5.6,13.5-11.5,19.3-18.2c0.9-1.1,0.9-1.1,1.9-0.1c1.4,1.4,3,2.5,4.6,3.5  c1.4,0.9,2.8,1.8,4,3c0.6,0.6,1.2,1.2,1.8,1.7c0.3,0.3,0.7,0.6,1.1,0.4c0.5-0.2,0.3-0.7,0.3-1.1c0.6-5.5,2-10.8,3.6-16  c1.6-5,3.5-9.9,4.6-15.1c1.2-5.2,3.2-10.2,4.5-15.4c0.1-0.5,0.5-0.9,0-1.4c-0.7,0-1.3,0.3-2,0.6c-3.1,1-6.1,2.5-9.2,3.6  c-5.1,1.6-10.1,3.6-15.2,5.1c-4.2,1.3-8.3,2.8-12.4,4.2c-2.1,0.7-4.3,1.3-6.2,2.5c-0.7,0.5-1,0.9-0.3,1.6c1.4,1.5,2.5,3.2,3,5.2  c0.5,2.5,2.9,3.3,4.4,4.8c0.1,0.1,0.5-0.3,0.9,0.2c-0.6,0.5-1.7,0.9-1,2.1c0.2,0.3,0,0.4-0.2,0.5c-1.1,0.4-1.6,1.5-2.6,2  c-2.2,1.2-4.1,2.7-6.1,4.2c-0.4,0.3-0.9,0.8-1.4,0.9c-1,0.2-1.7,0.9-2.5,1.5c-3.4,3.1-6.8,6.2-10.1,9.2c-1.8,1.6-3.5,3.2-5.3,4.9  c-1.1,1-1.7,2.5-2.9,3.5c-3.5,3-6.5,6.4-10.2,9.1c-0.7,0.5-1.6,1.2-1.2,2.4c0.4,1.3,1.1,2.6,2,3.6C11.2,83.7,14.4,86.7,16.9,90.5z   M87.9,34.2c-1.5,0-2.7,0.4-4,0.6c-0.4,0.1-0.8,0.1-1.2,0.3c-0.6,0.2-0.8,0.8-0.7,1.4c0.1,0.8,0.7,0.3,1.2,0.3c1-0.1,2.1-0.4,3.5,0  c-1.9,1.1-4.3,0.2-5.4,2.5c1.4,0.1,2.5-0.4,3.6-0.5c2.1-0.1,2.1-0.1,2.7-2.2C87.6,35.9,88.1,35.2,87.9,34.2z M91.7,21.2  c-1.3-0.7-2.6-0.7-3.9-0.7c-1.9,0-2.4,0.4-3,2.2c-0.2,0.6-0.6,1.1-0.5,1.9c1.4-0.3,2.8-0.2,4.1-0.2c0.8,0,1.6,0.6,2.2,0.2  c0.7-0.5,0.6-1.5,0.8-2.3C91.6,21.9,91.6,21.5,91.7,21.2z M84.9,41.9C83,42.6,80.7,42.1,79,44c1.7,0.4,3.1-0.3,4.4-0.2  c1.2,0.2,1.7-0.4,2-1.4c0.2-0.6,0.4-1.2,0.6-1.8c0.3-0.8-0.1-1.1-0.8-1c-1.5,0.2-3,0.6-4.6,0.9c-0.2,0-0.4,0.2-0.5,0.3  C80,41,79.9,41.3,80,41.6c0.1,0.3,0.4,0.4,0.7,0.3c0.8-0.2,1.5-0.4,2.3-0.6C83.5,41.3,84.3,41,84.9,41.9z M50.4,68.8  c-2.3-0.1-4.4-0.5-6.6-0.5c-1.3,0-2.1,0.5-2.7,1.5c1.3,0.2,2.7,0.2,3.7,0.8c2.3,1.1,3.9,0.6,5.4-1.3C50.3,69.2,50.3,69.2,50.4,68.8z   M34,84.6c-2-0.1-3.7-0.1-5.4-0.3c-2.5-0.3-3.6,1.2-4.7,3.1c0.4,0.3,0.9,0.4,1.1,0.2c1.4-1.2,3-0.8,4.5-0.8  C31.4,86.9,32.7,86.3,34,84.6z M56.4,56c0.5,0.3,1.3,0.8,1.3,0c0-1.2,0.7-0.9,1.2-0.8c1.1,0.3,2.1,0.8,3.2,1.1  c0.7,0.2,2.9-1.3,2.9-2.2c0-1.3-1.2-0.4-1.8-0.6c-0.4-0.1-0.9-0.6-1.6-0.2c1,0.6,1.4,1.4,1.2,2.5c-1-0.5-1.8-1.2-3-1.3  c-0.3,0-0.6-0.4-0.1-0.7c0.3-0.2,0.8-0.2,0.4-0.6c-0.3-0.3-0.7-0.8-1.2-0.3C57.9,53.8,57,54.7,56.4,56z M37.5,81.3  c-1.9-0.1-3.7,0.8-5.7,0.4c1.2-1.1,2.9-0.3,4-1.4c-1.4-0.4-2.9,0-4.2-0.7c-0.3-0.1-0.5-0.1-0.8,0.1c-0.8,0.7-1.7,1.3-2.1,2.6  c2.5,0,4.8,0,7.1,0.3C36.6,82.6,37.2,82.2,37.5,81.3z M77,51.4c1.7-0.2,3.2-0.4,4.7-0.6c0.6-0.1,0.7-0.5,0.6-1.1  c-1.4-0.2-2.5,0.5-3.8,0.6c-0.3,0-0.6,0-0.6-0.4c-0.1-0.4,0.2-0.5,0.5-0.6c1.1-0.2,2.2-0.4,3.3-0.6c0.9-0.1,1.6-0.4,1.5-1.5  c-0.1-0.1-0.2-0.2-0.2-0.2c-1.2,0.3-2.3,0.5-3.5,0.8C77.3,48.6,77.2,48.7,77,51.4z M75.1,56.1c1.6,0.6,3.1,1.4,4.7,1.8  c0.8,0.2,1-0.2,1.1-0.8c0.1-0.6,0.6-1.4-0.2-1.9C79.6,54.5,76.5,55,75.1,56.1z M83.3,34c1.7-0.3,3.2-0.5,4.7-0.8  c0.6-0.1,0.8-0.5,0.8-1c0-0.5-0.5-0.6-0.9-0.6c-1.4,0.1-2.8,0.3-4.1,0.5c-0.3,0-0.6,0.3-0.9,0.5c-0.3,0.3-0.5,0.7-0.3,1.1  C82.7,34.1,83.1,34,83.3,34z M84,44.8c-1.7-0.3-3.2,0.3-4.7,0.7c-0.5,0.1-0.7,0.4-0.9,0.8c-0.2,0.6-0.1,1,0.6,0.9  c1.5-0.3,3-0.7,4.5-1.1C83.9,46,84.1,45.5,84,44.8z M87.2,25.2c-1-0.1-2,0.1-3.1,0.4c-0.4,0.1-0.4,0.5-0.4,0.9  c0,0.4,0.3,0.4,0.6,0.4c1.8-0.1,3.6-0.6,5.4-0.1c0.4,0.1,0.6-0.3,0.7-0.7c0-0.5-0.3-0.5-0.7-0.6C89,25.4,88.1,25.2,87.2,25.2z   M83.1,31.1c2,0.1,3.8-0.6,5.7-0.2c0.5,0.1,0.7-0.6,0.7-1.1c0-0.5-0.5-0.4-0.8-0.4c-1.3,0-2.5,0-3.8,0.1  C84,29.4,83.2,29.7,83.1,31.1z M82.1,51.8c-2.2,0.1-4.2,0.1-5.9,1.7c0.4,0.5,0.7,0.4,1.1,0.3c1.1-0.4,2.2-0.5,3.3-0.3  C81.9,53.8,82.1,53.1,82.1,51.8z M20.3,91.4c1.2,0.1,2.5,0.4,3.7,0.4c1.1,0,2.5,0.7,3.3-1.1C24.9,90.8,22.6,90.1,20.3,91.4z   M22.1,89.4c6.1,0.4,6.1,0.4,7-0.5c-2.2-0.6-4.3-0.4-6.5-0.5C22.4,88.4,22.1,88.8,22.1,89.4z M45.1,73.8c-2-0.6-2.6-0.6-5.5,0.1  C41.4,75.5,43.5,75.5,45.1,73.8z M83.5,27.9c1,0.6,4.7,0.9,6,0.4c0.4-0.1,0.4-0.5,0.3-0.9C87.8,27.1,85.7,27.5,83.5,27.9z   M32.7,78.8c1.8,0.4,3.7,0.8,5.5,1.2c0.7,0.1,1.2-0.3,1.3-1.1C37.3,78.5,35,77.9,32.7,78.8z M42.5,76.2c-0.7-0.6-1.5-0.3-2.2-0.7  c-1.3-0.6-2.7-0.5-4.1-0.8c-0.7-0.1-1,0.2-1.3,1.1C37.6,75.5,40,76.6,42.5,76.2z M33.7,77.1c1.3-0.1,2.5,0.2,3.7,0.4  c1.2,0.2,2.4,1,3.9-0.3C38.5,76.9,36.1,76.3,33.7,77.1z M27.4,83.4c2.8-0.2,5.3,0.9,7.9-0.1c-2.5-0.4-5-0.1-7.5-0.5  C27.7,82.9,27.6,83.1,27.4,83.4z M41,71.1c2.1,0.8,3.8,1.5,6,1.4C45.4,71.3,43.3,70.8,41,71.1z M41.4,72.1c-1.2,0.1-1.8-0.7-2.4-0.5  c-0.7,0.3-1.3,1-1.9,1.5c-0.2,0.1-0.2,0.4,0,0.5c0.2,0.2,0.4,0.2,0.6,0C38.5,72.6,39.9,72.9,41.4,72.1z M77.3,58  c-0.8-0.3-1.1-0.6-1.5-0.6c-0.5-0.1-0.8,0.1-0.8,0.6c0,0.5,0.4,0.4,0.7,0.4C76.1,58.2,76.5,58.1,77.3,58z M53.6,63.4  c0.5,0.1,0.9,0.9,1.6,0.4c0,0,0.1-0.1,0-0.2C54.8,63,54.2,63.1,53.6,63.4z M60.6,57c0.4,0.3,0.6,0.7,1.1,0.5c0.1,0,0.1-0.3,0.1-0.3  C61.5,56.8,61.2,56.7,60.6,57z"/><path d="M88,14c1.8-1.3,3.9-1.4,5.3,0C91.6,13.8,89.8,14.1,88,14z"/><path d="M85.6,22.2c1.6-0.8,3.4-1.1,5.2-0.1c-1.7,0.2-3.4,0.4-5.1,0.7C85.7,22.5,85.7,22.3,85.6,22.2z"/><path d="M25.9,86c2-0.8,4-0.7,6-0.2C29.9,85.9,27.9,86.6,25.9,86z"/><text x="0" y="115" fill="#000000" font-size="5px" font-weight="bold" font-family="'Helvetica Neue', Helvetica, Arial-Unicode, Arial, Sans-serif">Created by Alex Muravev</text><text x="0" y="120" fill="#000000" font-size="5px" font-weight="bold" font-family="'Helvetica Neue', Helvetica, Arial-Unicode, Arial, Sans-serif">from the Noun Project</text></svg>