<svg xmlns="http://www.w3.org/2000/svg" xmlns:xlink="http://www.w3.org/1999/xlink" xml:space="preserve" version="1.1" style="shape-rendering:geometricPrecision;text-rendering:geometricPrecision;image-rendering:optimizeQuality;" viewBox="0 0 50800 63500" x="0px" y="0px" fill-rule="evenodd" clip-rule="evenodd"><defs><style type="text/css">
   
    .fil0 {fill:black}
   
  </style></defs><g><path class="fil0" d="M20693 46308c70,-359 55,-480 693,-789 -9,728 25,783 -693,789zm-3433 -1087c341,-224 324,-46 608,-18 212,21 77,47 334,-3l439 -180 -225 1757 -468 -85c102,-133 307,-210 369,-432 115,-416 -107,-364 -212,-443 -266,-202 -536,-366 -845,-596zm2094 1266c187,136 51,60 290,123l261 53c-217,417 -387,362 -492,841l515 275 -640 567c-663,-778 -170,-2245 -141,-3297 762,100 309,132 1065,-104 -204,568 -815,1227 -858,1542zm-704 -1916c-548,-65 -749,-275 -1148,-567 -999,-733 -680,-514 -716,-865 2199,718 1796,622 1864,1432zm1806 797c162,-644 609,-881 405,-1489 -81,-242 -398,-239 584,-1069l-86 2050c-28,17 -66,36 -86,46l-817 462zm-1208 -1590c29,-18 68,-40 90,-51l654 -329c373,-268 277,-281 667,-477 -114,484 -833,1538 -1444,1779l33 -922zm222 -918c-14,-390 -223,-840 944,-1185 -148,382 -191,366 -410,655 -69,92 -135,205 -200,276 -271,296 -43,85 -334,254zm1220 -608c143,-395 32,-147 238,-448l809 -936c-285,1274 -45,1155 -1047,1384zm-3174 -1777c670,-113 184,475 1557,134 -47,606 -82,1529 -284,2071l-101 189c-203,-126 -387,-251 -519,-374l-345 -433c357,51 524,122 818,-9 2,-739 -923,-1172 -1311,-1495l185 -83zm1533 -41c-577,-619 -580,-440 -748,-864 177,41 643,157 765,260 463,392 -11,596 -17,604zm1486 -1858c-173,-631 -56,-421 376,-498 -154,686 110,252 -376,498zm-894 518c-493,-75 -1118,-721 -1223,-960 378,103 423,194 754,343 640,287 501,-179 469,617zm129 -1326c-452,-167 -1343,-1302 -1572,-1698 364,85 545,225 940,400l832 404c14,-25 56,35 102,60l-302 834zm2084 41c695,-769 317,-521 170,-1122 1083,-1006 -176,-639 631,-1189 127,170 90,-232 131,346 28,381 -386,1269 -521,2107 -162,1013 -399,1624 -454,2714 -776,-220 -312,-338 -1677,473 640,-1430 1445,-1201 1407,-1800 -20,-323 5,-137 -153,-291l-236 -147c-14,-42 -60,-30 -87,-49 211,-401 497,-718 789,-1042zm-2584 -3044c277,-152 210,-160 684,59 297,137 344,134 560,301l-263 712 -981 -1072zm333 -2063c182,89 1571,989 1493,168 -33,-354 -806,-681 -966,-1264l1389 471c-112,885 -423,1318 -622,1999 -532,-209 -1136,-786 -1294,-1374zm3590 -1393c394,-381 507,-594 1076,-792l-901 2790c-183,417 -189,460 -188,977 -27,21 -65,45 -85,59l-159 110c-125,89 -36,11 -208,151l-1168 759c70,-505 516,-839 854,-1081 656,-471 466,-564 71,-1166 353,-445 763,-851 1011,-1236 -103,-340 -136,-247 -303,-571zm-538 -1434c-308,-482 -133,-224 -46,-673 108,-558 -32,-306 166,-592 258,208 442,425 66,1041l-186 224zm1156 -158c334,-521 756,-847 1263,-1213 -21,516 -356,1130 -566,1498 -87,-42 -280,-115 -401,-164l-296 -121zm-73 -1817c-431,-237 -382,-113 -548,-637l735 38 -187 599zm805 14c699,-776 214,-982 1158,-1244 -65,571 -324,1068 -487,1552 -483,-109 -390,-54 -671,-308zm208 -2589c100,-352 -10,-373 188,-652 488,79 539,-96 51,873 -376,749 -232,641 -652,864l-353 -313c-173,-213 -582,-869 -646,-1212 728,295 478,731 1412,440zm1290 -1978c-118,484 -21,285 -381,509 -366,-212 -439,-258 -524,-833l905 324zm789 -1471c-75,-631 -156,-282 -376,-863 509,108 480,123 809,411 -112,440 -392,799 -602,1106 -418,-185 -436,-189 -530,-632 458,127 247,163 699,-22zm993 -1516c304,-15 96,11 248,118 -350,336 -225,353 -498,-15 119,-73 -8,-91 250,-103zm6067 -326c-66,804 -120,589 -176,673 -287,-346 -581,-779 -625,-1333 406,236 353,400 801,660zm-5097 670c101,-416 170,-406 354,-713 291,-487 118,-349 553,-546 -126,452 -180,490 -400,810 -260,377 -195,350 -507,449zm-339 -805c-366,134 -129,178 -456,-79 -249,-196 -216,-197 -293,-426 907,250 653,279 749,505zm6171 720c11,-487 376,-1706 533,-2185l742 -23c-206,498 -158,41 -265,609 25,19 64,36 79,48 15,11 58,36 75,50l194 248 -412 458c689,36 523,-557 1299,-846 -48,638 83,458 -351,690 -518,277 -1186,779 -1894,951zm-5572 -1816c-439,-64 -322,96 -394,-361 640,132 283,-18 394,361zm6428 -1052c52,-560 38,-450 559,-462 -186,431 53,265 -559,462zm1558 -378c113,-479 48,-389 523,-529 -97,579 -15,473 -523,529zm-935 -1101c18,-517 104,-468 606,-492 -262,405 -189,299 -606,492zm1420 -1630c558,-313 488,-356 813,-615 274,-219 48,-70 352,-213 -50,230 -850,2633 -1128,2937 -12,-23 -23,-60 -27,-74l-37 -144c-18,-70 79,19 -44,-199 -114,-202 -145,-123 -402,-318l186 -179c17,-17 43,-43 60,-62l561 -649 -334 -484zm319 -942c-132,387 -134,354 -424,612l-658 424 90 -751 992 -285zm-1601 -191c-196,-698 -703,-733 -886,-1494 489,56 944,223 1313,515l-585 1874c-253,622 -515,1109 -758,1643 -450,992 -1011,2449 -1206,3493 -270,-132 -98,1 -351,-216 -378,-324 -1230,-1558 -1312,-1922 464,143 328,86 666,409 586,559 1194,821 903,-417 491,-5 217,105 535,-176 -80,-816 -198,-315 -525,-1030 545,226 272,301 905,339 232,-806 -823,-1325 -1055,-2332 541,143 429,150 840,454 488,362 1202,303 415,-660 -250,-305 -378,-542 -507,-907 786,250 970,848 1608,427zm718 -1454c-431,-348 -826,-884 -1015,-1519 545,178 609,473 1196,375 125,-944 -484,-817 -317,-1870 471,-52 458,-55 805,172l459 433c-151,660 -590,1170 -848,1825 -17,44 -116,310 -130,341 -149,318 -26,86 -150,243zm2372 -2169c1606,-1099 309,-921 1114,-1444 151,207 198,-303 77,303 -3,13 -1431,3775 -1616,4671l-516 -280c-186,-51 -121,-11 -325,-76l-198 -113c1203,-743 1158,-575 796,-1327 -13,-28 -33,-51 -43,-112 -29,-177 546,-632 701,-782l10 -840zm-569 -1673c-287,-272 -440,-587 -537,-1012l946 112c-74,450 -139,604 -409,900zm2228 -2241c-15,-37 -52,-34 -78,-52 213,-219 -168,-124 213,-183 4,0 307,28 375,24 774,-51 356,-260 538,159 -157,110 -27,83 -276,138l-687 -42c-23,-6 -69,-7 -85,-44zm297 -2211c-37,385 -895,1608 -1327,2386 -422,761 -342,550 -662,688l-220 -674c127,-71 36,-36 252,-80 1048,-214 355,-616 379,-1483 6,-225 45,-212 85,-300 384,-100 468,6 821,129l-61 -409 733 -257zm101 1451c368,-967 873,-1796 1977,-1832 -134,538 -226,393 -445,791 -254,461 -211,914 -1532,1041zm2989 -854c102,-1302 231,-961 1057,-1814l-421 -427c-437,21 -413,151 -750,293 -1225,520 -1018,-272 -1595,-138l-2179 924c-2304,695 -3132,1196 -4666,1717l-4314 1814c-520,270 -853,543 -1374,791 -476,226 -859,409 -1332,707 -821,517 -1848,836 -2742,1351l-2635 1563c-720,393 -2124,1012 -2160,1870 900,904 1809,-102 4004,1108 227,125 328,141 595,248 528,211 789,202 1378,304 -216,381 -38,160 -444,446l-2291 1672c-282,185 -765,388 -982,582 -154,138 -234,312 -375,467l-1188 1083c-825,928 -1400,1268 -2417,2403 -515,574 -1078,987 -1504,1621 -246,365 -383,551 -671,892l-2137 2551c-145,171 -241,291 -407,432 -542,458 -506,869 -933,1469 -504,708 -735,1278 -1106,2012 -364,724 -632,1432 -1068,2067 -407,594 -1043,2570 -1344,3338 -734,1874 -1563,4351 -1512,6392l-79 2806c-95,668 -1,803 470,997l-62 506c168,124 123,250 532,97 653,-243 -172,-756 2382,851 761,478 1112,577 1922,948 839,384 1594,490 2237,779 448,202 1826,871 1905,-254 -490,-306 -656,-123 -1247,-258l-2126 -762c-1040,-407 -2095,-993 -2970,-1494 -835,-478 -1118,-375 -1585,-1298l-685 -36c-64,-1665 224,-3443 470,-5014l859 -3019c312,-750 505,-1575 795,-2320 558,-1435 1349,-2899 2007,-4240l515 -1063c97,-213 426,-748 583,-973l1993 -2584c249,-285 446,-606 677,-877 582,-687 939,-1125 1440,-1685 528,-590 893,-1040 1501,-1637l2410 -2278c259,-242 528,-515 781,-772 1049,-1067 2432,-1747 3553,-2699 1399,-1186 1509,-621 1626,-1364 -685,-585 -2106,-651 -2959,-972 -808,-304 -304,-451 -1467,-592 -516,-62 -1188,-140 -1580,-359 18,-23 43,-56 56,-68 13,-13 42,-50 59,-65 18,-14 49,-40 69,-55 20,-16 54,-33 75,-48 80,-56 94,-42 225,-136 1062,-758 2214,-1288 3336,-1951 660,-390 1395,-603 2036,-974 679,-395 1144,-752 1898,-1105 729,-341 1349,-776 2047,-1078 799,-346 1369,-476 2148,-858 809,-398 3564,-1497 4412,-1641l209 459c71,248 50,209 87,443l-708 -67c-162,619 92,934 190,1413l-902 -72c-223,226 -56,23 -257,323 103,403 78,479 338,748l-181 157c-27,19 -62,38 -90,56 -377,245 -352,39 -201,693 -1630,-367 -1221,576 -972,1583 -575,-156 -746,-494 -1093,-126 -78,82 -356,-18 133,782 255,416 255,294 402,795 -499,-85 -601,-205 -1112,-111 -288,641 81,448 250,1185 -580,-157 -671,-443 -1191,-161 37,726 512,732 686,1456 -396,-199 -555,-437 -1134,-476l-273 279c153,654 832,1388 1145,1993 -463,-136 -568,-351 -888,-700 -24,-26 -344,-353 -360,-364 -147,-96 -47,-69 -226,-95 -396,-59 -384,273 -211,523l841 1129c-688,-285 -558,-970 -1329,-624 55,464 871,1022 1106,1605 -779,-288 -931,-1168 -1806,-1033l162 839c-636,-108 -372,-72 -706,-428 -583,-623 -786,232 -1107,736 -399,-118 -638,-331 -1033,-168 195,546 435,419 630,987 -516,-101 -911,-494 -1437,-131 25,587 274,625 471,1086 -587,-80 -1112,-749 -1619,-280l-602 460c293,264 833,1047 928,1408 -697,-157 -947,-806 -1668,-461 39,333 76,245 231,551l-502 361c152,634 551,728 621,1382 -742,-134 -825,-444 -1466,-60 -29,608 290,842 407,1397 -967,-186 -374,-539 -1483,-510 16,817 327,369 584,1155 -726,-231 -517,-751 -1282,-661 -61,720 831,1904 974,2739 -760,-111 -563,-381 -1373,-270 -112,470 274,804 493,1338 -530,0 -748,-133 -1066,257 -302,369 -463,239 -776,684 149,396 416,509 674,842 -30,16 -68,37 -93,45l-691 86c-338,477 -724,642 -357,1267 343,60 661,141 951,-94 424,-346 -192,-153 640,-499l94 518c-41,364 -424,551 -603,824 -397,-102 -1563,-692 -1793,-659 -790,115 283,1065 408,1422 -851,-217 -398,-597 -1219,-454 -88,649 755,1398 1150,1877l435 673c-588,-134 -1036,-531 -1442,-629 -511,-122 -344,92 -380,128 -388,436 1175,1796 1317,2270 -968,-169 -1360,-750 -2183,-637 15,593 334,796 666,1231 269,353 598,684 771,1060 -825,-143 -1160,-763 -1909,-716 -24,862 1270,1332 1651,2023 -974,-86 -1324,-776 -2102,-659 -111,732 873,906 1264,1509 -827,-64 -1142,-624 -1848,-539 -117,532 -123,266 236,579 415,363 1034,835 1270,1289 -715,-128 -1342,-915 -1831,-759 -57,128 -90,267 71,424 63,62 276,170 378,234 496,310 976,853 1409,1238l582 672c-1167,-79 -2454,-1187 -2988,-985 102,428 704,885 1042,1199 403,374 929,664 1133,1152 -864,-80 -1293,-600 -1845,-428 71,742 1355,1022 1688,1697 -500,-97 -808,-302 -1168,-538 -376,-246 -612,-514 -1104,-76 393,784 2011,739 2273,1656 -681,-164 -2120,-1097 -2544,-1139 -615,328 151,153 -596,361 -187,52 -31,-88 -361,92 -319,175 -144,144 -210,231 174,497 1,213 345,451 1679,1159 625,-34 2841,1019 519,247 541,479 956,92 -50,-362 -142,-362 -349,-605l854 120c45,630 -85,1444 247,1882 1029,130 979,-242 1081,-531 248,-699 1068,-1294 1601,-1791 365,-341 583,-354 881,-660 54,-774 -264,-1341 -332,-2021 -122,-1228 643,-5322 1063,-6631 441,-1373 1208,-5093 1260,-5228 224,-585 433,-1100 601,-1659l1920 -5195c214,-648 2149,-3402 2643,-4335 153,-290 310,-527 409,-785 204,-530 377,-707 676,-1129l819 -917c877,322 1237,1765 1674,2591 305,578 291,1196 1091,1225 589,-747 298,-711 1251,-1212 338,-178 568,-307 847,-471 536,-315 419,-132 994,-219 69,-109 726,-1931 795,-2188 166,-619 -305,-115 539,-2221 589,-1467 966,-2866 1645,-4248 328,-665 496,-1439 832,-2165 349,-754 630,-1201 1015,-1884 167,-296 104,-269 250,-563 354,-710 1598,-2497 2135,-2907z"/></g><text x="0" y="50815" fill="#000000" font-size="5px" font-weight="bold" font-family="'Helvetica Neue', Helvetica, Arial-Unicode, Arial, Sans-serif">Created by Alex Muravev</text><text x="0" y="50820" fill="#000000" font-size="5px" font-weight="bold" font-family="'Helvetica Neue', Helvetica, Arial-Unicode, Arial, Sans-serif">from the Noun Project</text></svg>