<svg xmlns="http://www.w3.org/2000/svg" xmlns:xlink="http://www.w3.org/1999/xlink" version="1.1" x="0px" y="0px" viewBox="0 0 100 125" style="enable-background:new 0 0 100 100;" xml:space="preserve"><g><g><path d="M15.5,66.8C38.4,45.8,61.7,25.4,86.7,7c-1.2-0.9-2.3-1.8-3.5-2.7c-5,30.2-10.3,61.2-21.6,89.8c2.1,0.3,4.2,0.6,6.3,0.9    c0.3-8.5-0.2-17.1-0.5-25.7c-0.1-5.2,1.3-14.1-6.1-14.7c-3.2-0.2-6.9,1-10,1.6c-3.9,0.8-7.9,1.7-11.7,2.8    c-7.6,2.1-15.7,4.2-22.7,8.1c-3.3,1.8-1,6.7,2.5,5.9c12.3-2.8,24.1-7.7,36.6-10.4c0.7-0.2,4.1-1.2,4.5-0.9    c-1.3-0.8-0.4,1.8-0.4,2.6c0.1,3.3,0.2,6.6,0.3,9.9c0.2,6.9,0.2,13.9,0.9,20.7c0.3,3.5,5.2,4.5,6.3,0.9c9-29.7,14.5-59.8,20-90.2    c0.3-1.8-1.6-4-3.5-2.7C58.8,21.1,34.4,41.4,13.5,64.8C12.3,66.1,14.1,68,15.5,66.8L15.5,66.8z"/></g></g></svg>