<svg xmlns="http://www.w3.org/2000/svg" xmlns:xlink="http://www.w3.org/1999/xlink" version="1.1" x="0px" y="0px" viewBox="0 0 90 112.5" style="enable-background:new 0 0 90 90;" xml:space="preserve"><path d="M76.2556839,50.7566299c-0.3383789,2.6045532-0.6767578,5.2091064-1.0151367,7.8136597  c-3.9302368-8.7853394-7.774292-17.6088867-11.6367836-26.4241943c-1.7756348-4.0525513-4.3501587-12.0195313-9.826355-12.5065918  c-4.3887329-0.3903809-6.9141846,4.4035645-8.6028442,7.666687c-1.7479858,3.3778687-3.2302246,6.8908691-4.8616333,10.3251953  c-0.9071655,1.909668-4.2857056,11.0264893-7.043396,10.576416c-2.0231934-0.3302002-3.5056152-6.8755493-3.9370117-8.3997803  c-1.0431519-3.68573-1.3342896-7.682251-2.6855469-11.2670898C23.8043861,20.999733,15.7655077,20.567543,9.856389,24.9579849  c-2.5997319,1.9315796,0.5756226,5.0872803,2.8759766,3.3781128c1.8464966-1.3719482,4.6445303-2.8345337,6.8674307-1.6532593  c3.0812988,1.6375122,3.1777954,7.0615845,3.855835,10.0263062c0.6459961,2.8248291,1.34729,5.6755981,2.3883667,8.3840942  c1.2415771,3.2301636,3.2427979,7.241333,7.1835327,7.4466553c4.7883301,0.2494507,7.7458496-5.2550049,9.6265869-8.8018799  c3.0452271-5.742981,5.0557251-12.197998,8.647522-17.6339111c2.1141968-3.199707,2.9125977-1.6160278,4.6234131,1.2839966  c2.1238403,3.6002197,3.5557251,7.6578369,5.2258911,11.4842529c3.154789,7.2279663,6.3386269,14.4440308,9.5651283,21.640625  c-2.0969238-1.651062-4.1937256-3.302063-6.2906494-4.953125c-2.2029457-1.7345581-5.5661659,1.7929688-3.1384926,3.7045288  c4.5300331,3.5668335,9.0600014,7.133606,13.5899696,10.7004395c1.3244019,1.0428467,3.7738037,0.0012817,3.9886475-1.6523438  c0.742981-5.718689,1.4859619-11.4373779,2.2288818-17.1560669C81.4922562,48.0945206,76.6175613,47.9712906,76.2556839,50.7566299z  "/><text x="0" y="105" fill="#000000" font-size="5px" font-weight="bold" font-family="'Helvetica Neue', Helvetica, Arial-Unicode, Arial, Sans-serif">Created by iconcheese</text><text x="0" y="110" fill="#000000" font-size="5px" font-weight="bold" font-family="'Helvetica Neue', Helvetica, Arial-Unicode, Arial, Sans-serif">from the Noun Project</text></svg>