<svg xmlns="http://www.w3.org/2000/svg" xmlns:xlink="http://www.w3.org/1999/xlink" version="1.1" x="0px" y="0px" viewBox="0 0 100 125" enable-background="new 0 0 100 100" xml:space="preserve"><path d="M91.915,35.597c-2.961-1.066-8.241,0.404-11.355,0.616c-4.613,0.314-9.227,0.598-13.843,0.871  c-18.462,1.09-36.944,1.812-55.432,2.237c-1.406,0.032-2.199,1.004-2.378,2.083c-0.732,0.196-1.375,0.725-1.649,1.669  c-1.809,6.218-2.51,12.47-2.087,18.936c0.088,1.349,1.07,2.514,2.5,2.5c17.91-0.178,35.821-0.356,53.731-0.534  c8.381-0.083,16.964,0.355,25.313-0.36c5.895-0.505,5.726-10.999,6.572-15.095C94.104,44.561,97.24,37.514,91.915,35.597z   M89.215,43.561c-0.375,1.814-0.749,3.628-1.124,5.443c-0.624,3.024-1.249,6.047-1.873,9.071c-0.308,1.493-9.507,0.747-10.885,0.761  c-7.297,0.073-14.594,0.145-21.891,0.218c-14.458,0.144-28.915,0.287-43.373,0.431c-0.096-5.127,0.556-10.085,2.01-15.083  c0.01-0.035,0.01-0.067,0.019-0.102c14.256-0.335,28.506-0.856,42.748-1.568c7.256-0.363,14.509-0.791,21.76-1.256  c3.955-0.254,7.908-0.531,11.861-0.815C91.682,40.428,89.716,41.132,89.215,43.561z"/></svg>