<svg xmlns="http://www.w3.org/2000/svg" xmlns:xlink="http://www.w3.org/1999/xlink" xml:space="preserve" version="1.1" style="shape-rendering:geometricPrecision;text-rendering:geometricPrecision;image-rendering:optimizeQuality;" viewBox="0 0 50800 63500" x="0px" y="0px" fill-rule="evenodd" clip-rule="evenodd"><defs><style type="text/css">
   
    .fil0 {fill:black}
   
  </style></defs><g><path class="fil0" d="M2527 21641c665,-224 10127,-154 11691,-203 3894,-124 7770,-102 11679,-154 1496,-20 4594,39 5925,-94 1142,-115 1623,119 2671,140 1553,30 3937,-173 5635,-191 959,-10 1772,126 2868,95 932,-27 1903,-43 2862,-88l2827 140 -72 1077c-709,-231 -4058,-266 -4637,72 396,168 3067,-156 3877,-83 486,44 767,151 759,662 -1428,-635 -7001,-190 -9036,-189 -1485,1 -7876,52 -8802,508 61,34 2,35 177,45 620,38 1342,-137 1962,-186 3250,-253 6485,-264 9746,-287 414,-2 754,-29 1166,-36 583,-9 607,113 970,153 637,70 2930,-360 3682,189 197,143 147,61 243,320l-486 61c-133,-12 -347,-58 -487,-74 -405,-48 -765,-39 -1172,-23 -771,31 -1359,97 -2062,173 203,164 -201,171 534,129l1526 -120c672,-5 1415,-38 2015,176 292,227 365,1591 390,1678 -736,15 -2892,-389 -3560,-20 231,184 624,73 933,52 342,-22 708,-3 1053,3 1175,17 1453,-153 1511,658 -829,-17 -1436,-181 -2322,-112 -723,57 -1580,93 -2272,93 -1556,-1 -3167,28 -4693,42 -2776,26 -5172,265 -7855,458 -655,48 -712,-13 -842,318 2172,-499 6407,-613 8817,-600 1540,9 8358,-342 9059,81l-42 957c-660,-13 -1352,-125 -2019,-169 -716,-47 -1401,49 -2107,44 170,265 465,113 830,99 361,-14 809,-8 1173,2 670,18 1467,116 2124,256l-30 782 -5292 -332c939,-436 4590,150 4797,53 -847,-541 -3986,-514 -5077,-109 -26,10 -50,23 -78,32 -28,9 -54,19 -84,26 -266,63 -8281,-432 -12105,149 239,220 -91,41 250,120 142,33 129,21 280,13 122,-6 399,-61 557,-75 373,-35 749,-50 1120,-81 1679,-142 13844,18 15278,376l311 141c13,-23 50,31 72,50 -187,126 -37,79 -300,78 -752,-1 -1406,-341 -2721,-216 27,14 63,25 84,31l759 109c741,47 1855,344 2175,360l119 1617c-1350,-77 -1839,-3 -3032,76 -1027,67 -1847,-132 -2855,-164 -1418,-45 -967,219 -2714,0l-8968 183c-1006,-22 -2061,-108 -3078,-115 -984,-6 -1951,133 -2974,145 -2063,24 -4034,-227 -6036,-45 -1992,181 -3851,166 -5859,210 -1948,43 -3991,112 -5978,219 -2263,123 -2350,-144 -4071,-103 -360,9 -872,-46 -1360,-22 95,-1848 -198,-2997 -334,-4689 -78,-963 168,-1271 118,-2223 -103,-1971 -793,-2588 1567,-2401 -27,-15 -65,-22 -86,-29 -22,-6 -60,-19 -87,-26l-529 -156c-14,-33 -55,-18 -78,-36zm-744 9623l534 204c173,7 445,-30 642,-33 2011,-29 2641,244 4511,93 1893,-153 3990,-159 5893,-198l4464 -42c1933,-120 1826,-404 4389,-136 502,53 924,-53 1447,-46 518,7 1033,80 1495,86 963,14 1917,-160 2860,-175 1008,-16 2072,82 3079,122 2094,83 4173,-73 6267,-43 898,13 1846,-227 2869,-154 2657,188 3352,196 6046,155 1156,-18 2106,162 3112,170 -131,-564 -195,-779 -184,-1396 1,-98 13,-544 52,-710 160,-675 -97,-160 417,-419l-414 -189c52,-473 -122,-1224 -103,-1941l-17 -3932c-30,-480 -118,-520 -169,-779 -69,-347 -13,-616 -81,-974 -570,9 -1044,103 -1652,87 -701,-17 -1192,-77 -1913,-31l-10707 118c-559,-3 -1086,-109 -1609,-166 -701,-76 -5973,161 -7430,144l-3802 -35c-606,34 -1032,150 -1717,137 -1236,-24 -2456,44 -3608,30 -1197,-14 -2642,-22 -3821,32 -2076,96 -7076,200 -9243,82 -2364,-128 -2083,-213 -2097,507 -18,903 -258,1181 -132,2768l575 5090c37,386 -62,1343 47,1574z"/><path class="fil0" d="M31282 24718c289,223 466,59 921,-33 1569,-318 12017,-499 12628,-298 781,256 297,75 1414,29 829,-33 1461,64 2253,99 -456,-449 -3712,-347 -4266,-358 -1466,-29 -3025,-23 -4454,31 -963,36 -7647,-72 -8496,530z"/><path class="fil0" d="M32278 22068c907,-190 3012,-275 4018,-286l8175 -38c1090,-17 2776,-101 3731,-13l-149 -67c-147,-33 -2671,-301 -3711,-120 -1394,243 -11424,-270 -12064,524z"/><path class="fil0" d="M39391 29938c1388,5 6611,242 7478,96 -1726,-295 -9180,-235 -11300,-209 -915,11 -2968,-214 -3593,194l7415 -81z"/><path class="fil0" d="M46925 30315l-319 -4c-636,-7 -2249,-111 -2623,165l4077 31c-245,-141 -757,-188 -1135,-192z"/><path class="fil0" d="M46773 24820c-349,5 -1514,-44 -1806,63 -13,5 -48,62 -57,42 -10,-20 -37,34 -56,49l2023 11c1128,-2 1542,274 1757,137 -299,-380 -1332,-310 -1861,-302z"/><path class="fil0" d="M44636 26882c132,102 -92,48 206,101l1695 17c469,1 1367,142 1683,28 -188,-180 13,-113 -311,-161l-3273 15z"/><path class="fil0" d="M1818 22377l2373 -80c-749,-390 -1309,-47 -1770,-11 -330,26 -291,-57 -603,91z"/><path class="fil0" d="M1833 27467c434,246 783,-160 1915,-148 49,1 306,28 315,27 300,-26 56,19 241,-102 -394,-85 -2063,130 -2471,223z"/><path class="fil0" d="M3670 30862c-350,-212 -1066,-202 -1432,-101 160,140 -167,76 299,142 62,9 343,-10 428,-11 316,-5 388,27 705,-30z"/><path class="fil0" d="M3539 29315c-236,-175 255,2 -293,-168 -258,-80 -845,-82 -1125,26 93,224 -112,130 178,157 13,1 257,-58 359,-66 299,-26 575,34 881,51z"/><path class="fil0" d="M2167 28324c175,123 -247,72 289,85l1069 -70c-296,-183 -993,-265 -1358,-15z"/><path class="fil0" d="M3491 30410l-1261 -280c107,98 -248,168 553,294 351,56 340,64 708,-14z"/><path class="fil0" d="M2365 23700l1287 -93c-310,-152 -1160,-227 -1287,93z"/></g><text x="0" y="50815" fill="#000000" font-size="5px" font-weight="bold" font-family="'Helvetica Neue', Helvetica, Arial-Unicode, Arial, Sans-serif">Created by Alex Muravev</text><text x="0" y="50820" fill="#000000" font-size="5px" font-weight="bold" font-family="'Helvetica Neue', Helvetica, Arial-Unicode, Arial, Sans-serif">from the Noun Project</text></svg>