<svg xmlns="http://www.w3.org/2000/svg" xmlns:xlink="http://www.w3.org/1999/xlink" version="1.1" x="0px" y="0px" viewBox="0 0 44.16 56.7" enable-background="new 0 0 44.16 45.36" xml:space="preserve"><path fill-rule="evenodd" clip-rule="evenodd" d="M26.956,2.211c0.518,4.258,0.338,9.994,0.215,13.631  c4.363,0.726,9.615,0.227,14.496,0.434c0.791,2.473-0.021,7.644,0.387,10.703c-4.088-0.208-9.383,0.131-14.332,0  c-0.658,4.66,0.021,11.062-0.551,15.802c-2.127,1.683-8.502,0.934-9.844,0c-0.806-4.7,0.119-11.385-0.65-16.12  c-3.463,0.438-9.52,0.649-13.847,0.217c0.1-4.219,0.108-7.464,0.649-10.386c3.527-0.316,9.195,0.109,13.307-0.324  c1.212-4.969,0.448-9.716,1.406-13.739C20.673,1.398,24.575,1.563,26.956,2.211z M19.49,3.726c0.114,3.393-0.733,11.45-0.757,14.821  c-3.462-0.107-8.224,0.21-13.306,0.217c-0.171,2.082-0.488,4.714,0,5.842c3.929-0.196,9.844,0.109,13.571-0.432  c-0.505,6.064-0.442,10.819,0.312,15.89c1.958,0.638,3.721,0.517,5.919,0.312c-0.438-4.303,0.904-11.847,0.211-15.77  c4.326-0.324,10.602,0,14.604-0.541c0.346-1.317,0.047-3.7,0-5.41c-5.162-0.347-10.016,0.441-14.279-0.108  C24.468,14.86,26.306,7.188,25.116,3.51C23.394,3.674,20.296,3.479,19.49,3.726z"/></svg>