<svg xmlns="http://www.w3.org/2000/svg" data-name="Слой 1" viewBox="0 0 100 125" x="0px" y="0px"><title>medicine</title><g><path d="M66.244,36.53079c3.25182-.04776,6.57936-0.08723,9.90646-0.14825,3.37618-.062,6.75174-0.15529,10.12792-0.21417,1.50647-.02633,3.015-0.03657,4.52049.01018a1.5611,1.5611,0,0,1,1.668,1.89082c-0.11714,3.05254-.29907,6.11193-0.20638,9.161,0.11532,3.78906.523,7.5682,0.71949,11.35613,0.09188,1.7713.67135,3.6958-1.02265,5.1253a1.55542,1.55542,0,0,1-.8076.46064c-4.48744.03488-8.97833-.06737-13.46162,0.07522-2.89594.09213-5.77635,0.60964-8.673,0.77567a19.77392,19.77392,0,0,1-3.68581-.49181c0.00138,1.42151-.02483,2.74392.0103,4.06476,0.05568,2.09971.2914,4.20414,0.20487,6.29644-0.24565,5.94288-.60618,11.88112-0.954,17.81948a3.54523,3.54523,0,0,1-.49074,1.48819,1.08579,1.08579,0,0,1-.81627.26218c-0.79968-1.23795-1.98044-.61687-3.02816-0.702-2.9479-.23943-5.89-0.75-8.836-0.76254a64.39106,64.39106,0,0,0-9.78819.70466,6.58608,6.58608,0,0,1-5.06748-1.0273,1.62778,1.62778,0,0,1-.42287-1.17567C36.08833,86.45,36.118,81.39908,36.0324,76.35014c-0.06265-3.69115-.27889-7.37948-0.39447-11.07a1.23564,1.23564,0,0,0-1.37884-1.42245c-1.98993-.08075-3.977-0.38875-5.96268-0.36656-1.58006.0176-3.1507,0.49-4.73535,0.57439a56.529,56.529,0,0,1-6.626.0477c-2.97631-.19186-5.93666-0.622-8.90744-0.91336a1.049,1.049,0,0,1-1.0579-1.48178c0.91952-3.61367.46485-7.23236,0.11444-10.856-0.06052-.62535.02243-1.26321,0.00628-1.89447-0.08773-3.43758-.25521-6.87516-0.2388-10.312a10.09838,10.09838,0,0,1,.81225-3.16088,1.23807,1.23807,0,0,1,.9828-0.47635c1.58534,0.00553,3.17037.09313,4.7554,0.15453,1.9788,0.07642,3.95691.20066,5.93635,0.22529q7.54579,0.09379,15.09246.10928c2.07521,0.00478,1.90842-.04594,2.044-2.24551,0.40634-6.59262.98035-13.17468,1.42723-19.7651A34.49578,34.49578,0,0,0,37.74,9.58637C37.71069,8.9592,37.64646,8.331,37.66161,7.70479c0.02878-1.19063.05147-2.44259,1.83735-1.47417a0.59464,0.59464,0,0,0,.28662-0.01175c2.77321-.24144,5.54308-0.61995,8.32055-0.68775,2.89292-.07064,5.79263.1786,8.6902,0.2498,2.08934,0.05147,4.18133.08911,6.26961,0.03532,0.9505-.02457,1.49334.17552,1.53243,1.2267,0.12738,3.4291.25263,6.85889,0.44474,10.28478,0.10482,1.87.39679,3.72949,0.50758,5.59938,0.146,2.46508.19721,4.93576,0.28726,7.404,0.00534,0.14542-.01929.29235-0.00911,0.43707C65.95345,32.53,66.08184,34.29144,66.244,36.53079ZM59.60749,48.30652q-2.28819,2.266-4.57636,4.53224l-0.469-.47824c4.52747-4.62362,9.05494-9.24736,13.77458-14.06737a8.74724,8.74724,0,0,1-2.39966-.1676,3.02282,3.02282,0,0,0-3.248.5441q-4.79326,3.82922-9.5886,7.65586c-0.71522.57206-1.41692,1.161-2.12485,1.7422l-0.25275-.28537a3.68511,3.68511,0,0,1,.4585-0.67883,73.25977,73.25977,0,0,1,7.06928-6.48868c1.86449-1.34277,1.47618-2.86433,1.58861-4.84162-3.89137,2.17645-6.72069,5.2156-9.86744,7.90648a19.40178,19.40178,0,0,1,3.4208-4.20326c1.8589-1.66107,2.49575-3.58991,1.47895-6.59011-2.10342,2.04108-4.04609,3.92631-5.98876,5.81154l-0.24634-.26426c1.76-1.76162,3.54253-3.50174,5.26707-5.29749a3.92315,3.92315,0,0,0,1.31952-1.931,37.89666,37.89666,0,0,0-.32314-5.03367c-2.34248,2.29987-4.45489,4.37369-6.56717,6.44758L47.894,32.17338c2.03172-2.11417,3.9698-4.3314,6.13494-6.2987,1.0726-.9747,1.06192-1.89346.79176-3.47723-1.72636,1.81152-3.23635,3.3961-4.74641,4.98069A0.67314,0.67314,0,0,1,49.941,26.6452c1.45048-1.68376,2.92378-3.34784,4.37489-5.031a2.06227,2.06227,0,0,0,.5967-0.96452c0.14473-1.61821.20141-3.24421,0.28939-4.86751q-0.26168-.12386-0.52348-0.24792Q52.53032,17.502,50.382,19.46971a1.47165,1.47165,0,0,1,.40993-1.19188q1.80168-1.79,3.65024-3.53279c1.32185-1.24367,1.30443-3.60016-.13637-4.35591,0.66532-.80521,1.32247-1.60043,2.06729-2.50178-2.36076-.5067-4.39839-1.00442-6.14147,1.33862-1.07506,1.44514-2.78395,2.41877-4.20829,3.60412q-0.14084-.138-0.28179-0.27582c1.5898-1.694,3.17974-3.38806,4.91691-5.23917a5.88512,5.88512,0,0,0-1.05878-.17791c-2.8669.1605-5.73337,0.33068-8.59807,0.526a1.5935,1.5935,0,0,0-.94491.34872,1.93061,1.93061,0,0,0-.647,1.08951c-0.17584,3.26746-.23767,6.54134-0.42941,9.80774-0.15573,2.65374-.52455,5.296-0.65105,7.95034-0.14712,3.08459-.09382,6.17848-0.23007,9.26389a1.73357,1.73357,0,0,1-.91386,1.32448c-2.82316.20543-5.65959,0.37706-8.4879,0.327-3.22875-.05725-6.45116-0.41564-9.68029-0.5282-3.46291-.12066-6.93034-0.10746-10.263-0.151,0.19645,7.88342.39641,15.90823,0.60461,24.26467,4.5308,0.32358,9.01139.78051,13.50184,0.921,3.62863,0.11349,7.26925-.1485,10.904-0.259a15.62931,15.62931,0,0,0,1.99766-.18067,1.51294,1.51294,0,0,1,1.85771,1.74855,31.39911,31.39911,0,0,0-.18589,3.56245c0.04512,2.85484.16591,5.70842,0.24521,8.56281,0.13763,4.95254.29121,9.90483,0.38008,14.85831,0.01873,1.04068.346,1.33919,1.38487,1.24932,3.13688-.27117,6.28343-0.62843,9.42408-0.60769,3.53643,0.02331,7.069.44549,10.60635,0.64119a15.04948,15.04948,0,0,0,2.88041-.169,1.03662,1.03662,0,0,0,.685-0.70749c0.29354-3.17835.62152-6.35815,0.7511-9.54543,0.12034-2.95652.03293-5.92252-.001-8.884-0.03029-2.659-.112-5.31728-0.17024-7.93118-1.6622-.41514-5.71288,2.81889-6.84958,5.35807,1.48-.08377,2.91975-0.19752,4.36119-0.22536a3.736,3.736,0,0,1,1.16147.38347,2.1723,2.1723,0,0,1-.41206.81181c-1.43986,1.05532-2.96531,1.99916-4.36156,3.107-1.33146,1.05633-2.53974,2.26782-3.80232,3.41106l0.179,0.3819c1.75489-.22014,3.63535-0.12148,5.22993-0.74884,1.63549-.64364,2.97286-0.85687,4.60678.32107a2.27615,2.27615,0,0,1-.94786.6442c-2.16972-.362-3.58451.91217-5.00263,2.19454-1.585,1.43345-3.15435,2.88425-4.73051,4.32756q0.17053,0.30268.34092,0.6053c0.99569-.41684,2.02983-0.76222,2.97619-1.27094,0.93372-.50205,1.74163-1.23971,2.67881-1.7334a5.09,5.09,0,0,1,1.69978-.199c-0.40289,1.74842-2.99479,1.28376-2.3673,3.42432-3.713-.19387-5.05768,3.36889-7.62891,4.952L50.43843,89.981q1.55188-1.83571,3.10363-3.67136-0.06391-.17524-0.12795-0.35048c-1.26321.29687-2.52642,0.59374-4.11352,0.96678a4.58654,4.58654,0,0,1,.29775-1.39147c1.52527-.15107,2.32312-1.31449,3.27262-2.23571,1.47361-1.42968,2.88833-2.92026,4.66032-4.72323a21.33922,21.33922,0,0,1-3.12242.20349,2.34225,2.34225,0,0,0-2.61955,1.56951,7.71741,7.71741,0,0,1-1.24291,1.52225l-0.32377-.21656a1.81288,1.81288,0,0,1,.10344-0.64276c0.42784-.71647,1.19383-1.30443.7472-2.318a0.75573,0.75573,0,0,1,.29938-0.46058c0.86045-.76581,1.7723-1.47763,2.59536-2.2807,1.6091-1.57014,3.17106-3.18853,4.944-4.98025-2.13755.03463-3.94309,0.12493-5.16376,1.90986-0.57426.8399-1.20093,1.64662-1.8408,2.43844-0.78717.97413-1.613,1.917-2.4221,2.87331l-0.364-.27393c1.42585-2.05227,2.85157-4.1046,4.30331-6.19419-0.77115-.1128-1.32511-0.19381-1.87913-0.27488l-0.06114-.47264a6.72811,6.72811,0,0,1,1.65145-.5566A4.63078,4.63078,0,0,0,56.30263,68.618c1.70958-1.8491,3.523-3.60242,5.30076-5.38811,0.99707-1.00159,1.96736-2.17908,3.47673-.69825a0.8335,0.8335,0,0,0,.427.06046,37.34134,37.34134,0,0,0,7.02762.492c5.7394-.49055,11.52367-0.44663,17.287-0.68694a1.52157,1.52157,0,0,0,1.138-.90683,42.4048,42.4048,0,0,0,.17891-5.34148c-0.19626-5.52328-.55088-11.04216-0.66124-16.56645-0.03016-1.51075-.6119-1.652-1.804-1.62217-2.69578.06737-5.40017,0.17018-8.08828,0.0235-1.83024-.09973-2.85175.88326-3.84625,2.24356q3.40229-.26884,6.80459-0.53762,0.00848,0.1709.01716,0.3418c-4.16863,4.06243-8.3372,8.1248-12.82508,12.49824,1.50189,0.08138,2.60874.1414,3.71547,0.20135l-0.0044.41546a20.65981,20.65981,0,0,0-2.33707.08094c-1.13193.16132-2.2951-.10143-3.24736,1.09655-1.53,1.92488-3.355,3.61606-5.07144,5.39043a4.41585,4.41585,0,0,1-.80219.53348L62.698,59.91333q2.68117-3.04211,5.36228-6.08428-0.0888-.24726-0.17785-0.49445-4.43034.5079-8.86082,1.01567-0.06259-.23019-0.125-0.46045a4.40124,4.40124,0,0,1,1.27993-.61825c2.0588-.24144,4.12458-0.5074,6.19319-0.5605a9.32854,9.32854,0,0,0,7.32147-4.89554c-1.17391.0778-2.33946,0.09062-3.48572,0.24578-1.89089.256-3.83575,0.3276-5.04988,2.27831a11.28,11.28,0,0,1-2.24061,2.0666q-0.19852-.20267-0.39736-0.40521c1.01272-1.01712,2.02543-2.03423,3.11922-3.13292a2.04712,2.04712,0,0,0-.59148-0.16968c-1.50006.11651-3.0105,0.17835-4.49271,0.4147-0.81225.12946-1.12835,0.02539-.96006-0.82444,1.95838-.19645,3.91852-0.37725,5.874-0.59984a2.67463,2.67463,0,0,0,1.477-.40125c1.84451-1.826,3.609-3.73288,5.66449-5.88966-2.40771.33929-4.45137,0.61492-6.48905,0.92983a1.53481,1.53481,0,0,0-.7264.44141Q62.48919,45.52631,59.60749,48.30652Zm3.7675-33.45c-2.27335,1.45846-2.7465,3.81916-1.492,5.48935a17.56514,17.56514,0,0,0-.48371,2.49072q-0.18485,4.07544-.227,8.15685c-0.01113.99273,0.1561,1.987,0.23132,2.98134a1.63491,1.63491,0,0,1-.04361.54215c-0.37687,1.38707-.76511,2.77107-1.15,4.15594q0.19155,0.08031.38322,0.16088a10.49574,10.49574,0,0,1,2.34015-1.65315c1.40567-.50488,1.57108-1.44369,1.4934-2.68786-0.1808-2.89795-.30975-5.79929-0.46391-8.699C63.77323,22.22513,63.57949,18.65658,63.375,14.85652ZM80.70229,41.18986q-0.10218-.18372-0.20455-0.36719c-1.20068.08993-2.4116,0.1118-3.59884,0.2904a6.33036,6.33036,0,0,0-2.98341.79666c-1.87712,1.56115-3.52223,3.40145-5.44271,5.31225,2.45766,0.34752,4.89258.34331,6.71453-.78C77.30147,45.13841,78.88725,42.97818,80.70229,41.18986ZM63.34345,13.70448c-0.01621-1.02912-.006-1.90182-0.04814-2.77188-0.15485-3.19168-.1605-3.17018-3.29713-3.02753-3.36927.15334-3.383,1.76476-3.2532,4.99508,1.1805-.96207,2.24551-1.85827,3.34683-2.70722a3.66658,3.66658,0,0,1,.98576-0.37744,8.017,8.017,0,0,1,.17527,1.04213c0.04676,1.16222.06259,2.3257,0.09307,3.61159C62.17293,14.15261,62.75254,13.93065,63.34345,13.70448Zm-6.7102,16.76013c1.22255-.91179,3.1052-1.612,3.595-2.85917,0.61423-1.56423.0861-3.57709,0.04776-5.55891C56.90348,24.11651,54.84034,26.41412,56.63325,30.46461Zm3.42577-.7467c-4.07217,1.9805-4.42346,2.63979-3.86177,7.09492C60.01553,34.31363,60.52123,33.40366,60.059,29.71791ZM60.04054,12.237c-3.46134,1.28131-4.834,4.30928-3.72691,6.8954,1.01913-.86284,2.39105-1.57629,3.04167-2.70546C59.96519,15.36825,59.812,13.86982,60.04054,12.237ZM76.23182,38.03633c-3.12487.60216-6.44594-.43456-8.38578,3.13631C70.71865,40.37308,73.9574,41.28531,76.23182,38.03633ZM59.83787,17.73763c-4.18365,3.9199-4.18365,3.9199-3.34074,6.20086a34.21435,34.21435,0,0,1,2.39652-2.47709C60.38706,20.19668,60.56007,19.73635,59.83787,17.73763Z"/><path d="M70.89524,58.36507q2.115-2.0233,4.22909-4.0476c2.4407-2.35178,4.87078-4.71474,7.31563-7.06225,1.3664-1.3121,2.72664-2.63281,4.14161-3.89125,0.83833-.74557,1.12854-0.70937,1.92111-0.16126q-8.73343,7.63374-17.48414,15.28275Z"/><path d="M78.86218,57.00407c2.48488-2.28768,4.96272-4.58309,7.4596-6.85769A18.09483,18.09483,0,0,1,88.3557,48.521a1.73794,1.73794,0,0,1,.8945.10677,1.758,1.758,0,0,1-.17961.875c-3.13757,2.5777-6.302,5.12272-9.46845,7.6651a1.56816,1.56816,0,0,1-.50545.1676Z"/></g><text x="0" y="115" fill="#000000" font-size="5px" font-weight="bold" font-family="'Helvetica Neue', Helvetica, Arial-Unicode, Arial, Sans-serif">Created by Alex Muravev</text><text x="0" y="120" fill="#000000" font-size="5px" font-weight="bold" font-family="'Helvetica Neue', Helvetica, Arial-Unicode, Arial, Sans-serif">from the Noun Project</text></svg>