<svg xmlns="http://www.w3.org/2000/svg" xmlns:xlink="http://www.w3.org/1999/xlink" version="1.1" x="0px" y="0px" viewBox="0 0 100 125" style="enable-background:new 0 0 100 100;" xml:space="preserve"><g><path d="M68.42361,11.50146c-1.10645-1.06396-3.24951-2.57666-7.1748-3.74072c-3.87256-1.14795-6.47607-1.06348-7.97705-0.79004   c-1.13623,0.20703-2.04492,1.01953-2.37158,2.12061L32.99051,69.48828l-0.05469,0.34961l1.4707,24.28125   c0.03223,0.53418,0.38525,0.97852,0.89893,1.13086c0.12109,0.03516,0.24365,0.05273,0.36426,0.05273   c0.39063,0,0.76221-0.18262,1.00488-0.51172l14.41943-19.48633l0.13428-0.23535l17.9707-60.55371   C69.52176,13.42627,69.22488,12.27148,68.42361,11.50146z M45.87363,72.88855c-0.50909-0.04962-1.06232,0.04016-1.48322,0.36786   c-0.211,0.15472-0.36731,0.34698-0.49652,0.55121c0.00317-0.242-0.02301-0.48883-0.11584-0.73389   c-0.15021-0.43402-0.48419-0.76257-0.86212-0.99902l18.4425-62.19214c1.12891,0.36908,2.08264,0.7608,2.85785,1.14856   L45.87363,72.88855z M39.67905,71.85828c-0.17456-0.50439-0.58972-0.88123-1.04376-1.11676L56.97806,8.88275   c0.86969,0.09912,1.87585,0.28845,3.02234,0.59534L41.55734,71.67297c-0.44543-0.00732-0.90393,0.08618-1.26587,0.36792   c-0.211,0.15472-0.36731,0.34698-0.49658,0.55121C39.79807,72.3501,39.77188,72.10333,39.67905,71.85828z M52.80252,9.65576   c0.11279-0.37988,0.42871-0.66064,0.82471-0.73291c0.57312-0.10425,1.35156-0.16772,2.33209-0.1228L37.67593,70.45758   c-0.50916-0.04962-1.0625,0.0401-1.48346,0.36786c-0.26514,0.1944-0.45978,0.44104-0.59613,0.70795   c0.01453-0.2738-0.02893-0.5592-0.14093-0.82642c-0.11749-0.28479-0.30444-0.54205-0.52386-0.76196l-0.0011-0.01825   L52.80252,9.65576z M34.991,70.92712c0.00958,0.01093,0.02179,0.01874,0.03107,0.02997   c0.32971,0.37329,0.42767,0.95135,0.34814,1.5155c0.37848-0.45966,0.78851-0.81714,1.21112-0.97351   c0.4173-0.15601,0.84698-0.12445,1.30396,0.01111c0.45648,0.1366,0.83362,0.3443,1.0979,0.70221   c0.26849,0.36108,0.41803,0.88367,0.48602,1.47565c0.37848-0.45966,0.78851-0.81708,1.21112-0.97345   c0.4173-0.15601,0.84698-0.12451,1.30396,0.01111c0.45648,0.13654,0.83362,0.3443,1.0979,0.70215   c0.26849,0.36115,0.41803,0.88373,0.48596,1.47571c0.37854-0.45966,0.78857-0.81714,1.21118-0.97351   c0.4173-0.15601,0.84698-0.12445,1.30396,0.01111c0.45648,0.13654,0.83362,0.3443,1.0979,0.70221   c0.26849,0.36108,0.41803,0.88367,0.48596,1.47565c0.26099-0.50244,0.67456-0.92474,1.14178-1.09363   c0.00958-0.00366,0.01929-0.00342,0.02887-0.0069L38.68442,88.73926c-0.49359-0.88745-1.42847-1.45264-2.45959-1.45264H35.9808   L34.991,70.92712z M67.29666,13.95117L49.42734,74.21039c-0.31805,0.05615-0.62378,0.19263-0.86853,0.38165   c-0.24316,0.18774-0.42651,0.41547-0.56836,0.65991c0.03949-0.31091,0.00873-0.64026-0.1134-0.96277   c-0.17462-0.50446-0.58984-0.88147-1.04401-1.11694l18.28198-61.65375c0.94153,0.55182,1.56506,1.05927,1.93359,1.41364   C67.31277,13.18604,67.40799,13.57666,67.29666,13.95117z"/><path d="M37.45047,80.52051c0.00391,0,0.0083,0,0.01221,0c0.27393-0.00684,0.49072-0.23438,0.48389-0.50879l-0.16211-6.50586   c-0.00635-0.27344-0.21631-0.45801-0.5083-0.4834c-0.27393,0.00684-0.49072,0.23438-0.48389,0.50879l0.16211,6.50586   C36.96121,80.30664,37.18192,80.52051,37.45047,80.52051z"/><path d="M37.51297,81.56055c-0.27393,0.00684-0.49072,0.23438-0.48389,0.50879l0.03516,1.4082   c0.00684,0.26953,0.22754,0.4834,0.49609,0.4834c0.00391,0,0.0083,0,0.01221,0c0.27393-0.00684,0.49072-0.23438,0.48389-0.50879   l-0.03516-1.4082C38.01492,81.77051,37.80643,81.5625,37.51297,81.56055z"/></g><text x="0" y="115" fill="#000000" font-size="5px" font-weight="bold" font-family="'Helvetica Neue', Helvetica, Arial-Unicode, Arial, Sans-serif">Created by Lucas Helle</text><text x="0" y="120" fill="#000000" font-size="5px" font-weight="bold" font-family="'Helvetica Neue', Helvetica, Arial-Unicode, Arial, Sans-serif">from the Noun Project</text></svg>