<svg xmlns="http://www.w3.org/2000/svg" xmlns:xlink="http://www.w3.org/1999/xlink" version="1.1" x="0px" y="0px" viewBox="0 0 100 125" enable-background="new 0 0 100 100" xml:space="preserve"><g><path fill-rule="evenodd" clip-rule="evenodd" d="M67.032,62.875c3.994-3.744,8.477-6.909,11.709-11.464   c1.737-2.447,0.695-3.576-1.149-5.183c-6.868-5.979-13.348-11.877-20.836-17.09c-2.183-1.521-4.575-3.019-7.302-2.909   c-1.768,0.072-2.355,0.744-2.334,2.44c0.031,2.691-0.117,5.385-0.164,8.075c-0.016,0.908-0.082,1.616-1.328,1.479   c-6.26-0.691-12.676-0.276-19.475-0.549c-2.064-0.321-4.242,0.231-3.916,2.995c0.65,5.471,0.584,10.947,0.598,16.43   c0.006,2.624,1.303,3.871,3.881,4.305c3.721,0.625,7.441,0.259,9.682,0.345c4.584,0,7.691-0.014,10.799,0.01   c0.785,0.004,1.6-0.175,1.588,1.18c-0.025,2.668,1.111,5.395-0.311,7.675c-0.799,1.285-0.482,1.838,0.387,2.576   c0.801,0.679,2.818,0.931,3.623-0.146C52.861,72.543,62.21,67.394,67.032,62.875z M53.139,64.633   c-0.388-2.238-0.436-7.325-2.168-6.311c-4.471-0.264-5.178,0.458-8.568,0.096c-4.309-0.461-8.652-0.604-12.984-0.795   c-1.381-0.061-1.637-0.552-1.582-1.894c0.152-3.714,0.16-7.44,0.061-11.158c-0.043-1.518-0.068-2.411,1.516-2.319   c5.672,0.329,10.816-0.143,16.498,0.032c0.719,0.022,2.457-0.175,3.285-0.131c2.311,0.121,2.199,0.129,2.449-3.021   c0.25-3.18-0.145-3.633,0.049-7.627c7.115,5.404,16.756,12.471,22.875,18.476c-5.785,6.239-15.27,14.293-21.297,18.99   C52.816,67.062,53.429,66.309,53.139,64.633z"/></g><text x="0" y="115" fill="#000000" font-size="5px" font-weight="bold" font-family="'Helvetica Neue', Helvetica, Arial-Unicode, Arial, Sans-serif">Created by mungang kim</text><text x="0" y="120" fill="#000000" font-size="5px" font-weight="bold" font-family="'Helvetica Neue', Helvetica, Arial-Unicode, Arial, Sans-serif">from the Noun Project</text></svg>